<?xml version="1.0" encoding="utf-8" standalone="no"?>
<!DOCTYPE svg PUBLIC "-//W3C//DTD SVG 1.1//EN"
  "http://www.w3.org/Graphics/SVG/1.1/DTD/svg11.dtd">
<!-- Created with matplotlib (https://matplotlib.org/) -->
<svg height="216pt" version="1.1" viewBox="0 0 288 216" width="288pt" xmlns="http://www.w3.org/2000/svg" xmlns:xlink="http://www.w3.org/1999/xlink">
 <defs>
  <style type="text/css">
*{stroke-linecap:butt;stroke-linejoin:round;}
  </style>
 </defs>
 <g id="figure_1">
  <g id="patch_1">
   <path d="M 0 216 
L 288 216 
L 288 0 
L 0 0 
z
" style="fill:#ffffff;"/>
  </g>
  <g id="axes_1">
   <g id="patch_2">
    <path d="M 36 189 
L 259.2 189 
L 259.2 25.92 
L 36 25.92 
z
" style="fill:#ffffff;"/>
   </g>
   <g id="matplotlib.axis_1">
    <g id="xtick_1">
     <g id="line2d_1">
      <defs>
       <path d="M 0 0 
L 0 3.5 
" id="m0a00fc0610" style="stroke:#000000;stroke-width:0.8;"/>
      </defs>
      <g>
       <use style="stroke:#000000;stroke-width:0.8;" x="46.145455" xlink:href="#m0a00fc0610" y="189"/>
      </g>
     </g>
     <g id="text_1">
      <!-- −100 -->
      <defs>
       <path d="M 10.59375 35.5 
L 73.1875 35.5 
L 73.1875 27.203125 
L 10.59375 27.203125 
z
" id="DejaVuSans-8722"/>
       <path d="M 12.40625 8.296875 
L 28.515625 8.296875 
L 28.515625 63.921875 
L 10.984375 60.40625 
L 10.984375 69.390625 
L 28.421875 72.90625 
L 38.28125 72.90625 
L 38.28125 8.296875 
L 54.390625 8.296875 
L 54.390625 0 
L 12.40625 0 
z
" id="DejaVuSans-49"/>
       <path d="M 31.78125 66.40625 
Q 24.171875 66.40625 20.328125 58.90625 
Q 16.5 51.421875 16.5 36.375 
Q 16.5 21.390625 20.328125 13.890625 
Q 24.171875 6.390625 31.78125 6.390625 
Q 39.453125 6.390625 43.28125 13.890625 
Q 47.125 21.390625 47.125 36.375 
Q 47.125 51.421875 43.28125 58.90625 
Q 39.453125 66.40625 31.78125 66.40625 
z
M 31.78125 74.21875 
Q 44.046875 74.21875 50.515625 64.515625 
Q 56.984375 54.828125 56.984375 36.375 
Q 56.984375 17.96875 50.515625 8.265625 
Q 44.046875 -1.421875 31.78125 -1.421875 
Q 19.53125 -1.421875 13.0625 8.265625 
Q 6.59375 17.96875 6.59375 36.375 
Q 6.59375 54.828125 13.0625 64.515625 
Q 19.53125 74.21875 31.78125 74.21875 
z
" id="DejaVuSans-48"/>
      </defs>
      <g transform="translate(32.411861 203.598437)scale(0.1 -0.1)">
       <use xlink:href="#DejaVuSans-8722"/>
       <use x="83.789062" xlink:href="#DejaVuSans-49"/>
       <use x="147.412109" xlink:href="#DejaVuSans-48"/>
       <use x="211.035156" xlink:href="#DejaVuSans-48"/>
      </g>
     </g>
    </g>
    <g id="xtick_2">
     <g id="line2d_2">
      <g>
       <use style="stroke:#000000;stroke-width:0.8;" x="96.872727" xlink:href="#m0a00fc0610" y="189"/>
      </g>
     </g>
     <g id="text_2">
      <!-- −50 -->
      <defs>
       <path d="M 10.796875 72.90625 
L 49.515625 72.90625 
L 49.515625 64.59375 
L 19.828125 64.59375 
L 19.828125 46.734375 
Q 21.96875 47.46875 24.109375 47.828125 
Q 26.265625 48.1875 28.421875 48.1875 
Q 40.625 48.1875 47.75 41.5 
Q 54.890625 34.8125 54.890625 23.390625 
Q 54.890625 11.625 47.5625 5.09375 
Q 40.234375 -1.421875 26.90625 -1.421875 
Q 22.3125 -1.421875 17.546875 -0.640625 
Q 12.796875 0.140625 7.71875 1.703125 
L 7.71875 11.625 
Q 12.109375 9.234375 16.796875 8.0625 
Q 21.484375 6.890625 26.703125 6.890625 
Q 35.15625 6.890625 40.078125 11.328125 
Q 45.015625 15.765625 45.015625 23.390625 
Q 45.015625 31 40.078125 35.4375 
Q 35.15625 39.890625 26.703125 39.890625 
Q 22.75 39.890625 18.8125 39.015625 
Q 14.890625 38.140625 10.796875 36.28125 
z
" id="DejaVuSans-53"/>
      </defs>
      <g transform="translate(86.320384 203.598437)scale(0.1 -0.1)">
       <use xlink:href="#DejaVuSans-8722"/>
       <use x="83.789062" xlink:href="#DejaVuSans-53"/>
       <use x="147.412109" xlink:href="#DejaVuSans-48"/>
      </g>
     </g>
    </g>
    <g id="xtick_3">
     <g id="line2d_3">
      <g>
       <use style="stroke:#000000;stroke-width:0.8;" x="147.6" xlink:href="#m0a00fc0610" y="189"/>
      </g>
     </g>
     <g id="text_3">
      <!-- 0 -->
      <g transform="translate(144.41875 203.598437)scale(0.1 -0.1)">
       <use xlink:href="#DejaVuSans-48"/>
      </g>
     </g>
    </g>
    <g id="xtick_4">
     <g id="line2d_4">
      <g>
       <use style="stroke:#000000;stroke-width:0.8;" x="198.327273" xlink:href="#m0a00fc0610" y="189"/>
      </g>
     </g>
     <g id="text_4">
      <!-- 50 -->
      <g transform="translate(191.964773 203.598437)scale(0.1 -0.1)">
       <use xlink:href="#DejaVuSans-53"/>
       <use x="63.623047" xlink:href="#DejaVuSans-48"/>
      </g>
     </g>
    </g>
    <g id="xtick_5">
     <g id="line2d_5">
      <g>
       <use style="stroke:#000000;stroke-width:0.8;" x="249.054545" xlink:href="#m0a00fc0610" y="189"/>
      </g>
     </g>
     <g id="text_5">
      <!-- 100 -->
      <g transform="translate(239.510795 203.598437)scale(0.1 -0.1)">
       <use xlink:href="#DejaVuSans-49"/>
       <use x="63.623047" xlink:href="#DejaVuSans-48"/>
       <use x="127.246094" xlink:href="#DejaVuSans-48"/>
      </g>
     </g>
    </g>
   </g>
   <g id="matplotlib.axis_2">
    <g id="ytick_1">
     <g id="line2d_6">
      <defs>
       <path d="M 0 0 
L -3.5 0 
" id="m8f454c0380" style="stroke:#000000;stroke-width:0.8;"/>
      </defs>
      <g>
       <use style="stroke:#000000;stroke-width:0.8;" x="36" xlink:href="#m8f454c0380" y="166.761818"/>
      </g>
     </g>
     <g id="text_6">
      <!-- −40 -->
      <defs>
       <path d="M 37.796875 64.3125 
L 12.890625 25.390625 
L 37.796875 25.390625 
z
M 35.203125 72.90625 
L 47.609375 72.90625 
L 47.609375 25.390625 
L 58.015625 25.390625 
L 58.015625 17.1875 
L 47.609375 17.1875 
L 47.609375 0 
L 37.796875 0 
L 37.796875 17.1875 
L 4.890625 17.1875 
L 4.890625 26.703125 
z
" id="DejaVuSans-52"/>
      </defs>
      <g transform="translate(7.895312 170.561037)scale(0.1 -0.1)">
       <use xlink:href="#DejaVuSans-8722"/>
       <use x="83.789062" xlink:href="#DejaVuSans-52"/>
       <use x="147.412109" xlink:href="#DejaVuSans-48"/>
      </g>
     </g>
    </g>
    <g id="ytick_2">
     <g id="line2d_7">
      <g>
       <use style="stroke:#000000;stroke-width:0.8;" x="36" xlink:href="#m8f454c0380" y="137.110909"/>
      </g>
     </g>
     <g id="text_7">
      <!-- −20 -->
      <defs>
       <path d="M 19.1875 8.296875 
L 53.609375 8.296875 
L 53.609375 0 
L 7.328125 0 
L 7.328125 8.296875 
Q 12.9375 14.109375 22.625 23.890625 
Q 32.328125 33.6875 34.8125 36.53125 
Q 39.546875 41.84375 41.421875 45.53125 
Q 43.3125 49.21875 43.3125 52.78125 
Q 43.3125 58.59375 39.234375 62.25 
Q 35.15625 65.921875 28.609375 65.921875 
Q 23.96875 65.921875 18.8125 64.3125 
Q 13.671875 62.703125 7.8125 59.421875 
L 7.8125 69.390625 
Q 13.765625 71.78125 18.9375 73 
Q 24.125 74.21875 28.421875 74.21875 
Q 39.75 74.21875 46.484375 68.546875 
Q 53.21875 62.890625 53.21875 53.421875 
Q 53.21875 48.921875 51.53125 44.890625 
Q 49.859375 40.875 45.40625 35.40625 
Q 44.1875 33.984375 37.640625 27.21875 
Q 31.109375 20.453125 19.1875 8.296875 
z
" id="DejaVuSans-50"/>
      </defs>
      <g transform="translate(7.895312 140.910128)scale(0.1 -0.1)">
       <use xlink:href="#DejaVuSans-8722"/>
       <use x="83.789062" xlink:href="#DejaVuSans-50"/>
       <use x="147.412109" xlink:href="#DejaVuSans-48"/>
      </g>
     </g>
    </g>
    <g id="ytick_3">
     <g id="line2d_8">
      <g>
       <use style="stroke:#000000;stroke-width:0.8;" x="36" xlink:href="#m8f454c0380" y="107.46"/>
      </g>
     </g>
     <g id="text_8">
      <!-- 0 -->
      <g transform="translate(22.6375 111.259219)scale(0.1 -0.1)">
       <use xlink:href="#DejaVuSans-48"/>
      </g>
     </g>
    </g>
    <g id="ytick_4">
     <g id="line2d_9">
      <g>
       <use style="stroke:#000000;stroke-width:0.8;" x="36" xlink:href="#m8f454c0380" y="77.809091"/>
      </g>
     </g>
     <g id="text_9">
      <!-- 20 -->
      <g transform="translate(16.275 81.60831)scale(0.1 -0.1)">
       <use xlink:href="#DejaVuSans-50"/>
       <use x="63.623047" xlink:href="#DejaVuSans-48"/>
      </g>
     </g>
    </g>
    <g id="ytick_5">
     <g id="line2d_10">
      <g>
       <use style="stroke:#000000;stroke-width:0.8;" x="36" xlink:href="#m8f454c0380" y="48.158182"/>
      </g>
     </g>
     <g id="text_10">
      <!-- 40 -->
      <g transform="translate(16.275 51.957401)scale(0.1 -0.1)">
       <use xlink:href="#DejaVuSans-52"/>
       <use x="63.623047" xlink:href="#DejaVuSans-48"/>
      </g>
     </g>
    </g>
   </g>
   <g id="line2d_11">
    <path clip-path="url(#p94e86bad1e)" d="M 46.145455 181.587273 
L 48.195041 180.089752 
L 50.244628 178.592231 
L 52.294215 177.094711 
L 54.343802 175.59719 
L 56.393388 174.099669 
L 58.442975 172.602149 
L 60.492562 171.104628 
L 62.542149 169.607107 
L 64.591736 168.109587 
L 66.641322 166.612066 
L 68.690909 165.114545 
L 70.740496 163.617025 
L 72.790083 162.119504 
L 74.839669 160.621983 
L 76.889256 159.124463 
L 78.938843 157.626942 
L 80.98843 156.129421 
L 83.038017 154.631901 
L 85.087603 153.13438 
L 87.13719 151.63686 
L 89.186777 150.139339 
L 91.236364 148.641818 
L 93.28595 147.144298 
L 95.335537 145.646777 
L 97.385124 144.149256 
L 99.434711 142.651736 
L 101.484298 141.154215 
L 103.533884 139.656694 
L 105.583471 138.159174 
L 107.633058 136.661653 
L 109.682645 135.164132 
L 111.732231 133.666612 
L 113.781818 132.169091 
L 115.831405 130.67157 
L 117.880992 129.17405 
L 119.930579 127.676529 
L 121.980165 126.179008 
L 124.029752 124.681488 
L 126.079339 123.183967 
L 128.128926 121.686446 
L 130.178512 120.188926 
L 132.228099 118.691405 
L 134.277686 117.193884 
L 136.327273 115.696364 
L 138.37686 114.198843 
L 140.426446 112.701322 
L 142.476033 111.203802 
L 144.52562 109.706281 
L 146.575207 108.20876 
L 148.624793 106.71124 
L 150.67438 105.213719 
L 152.723967 103.716198 
L 154.773554 102.218678 
L 156.82314 100.721157 
L 158.872727 99.223636 
L 160.922314 97.726116 
L 162.971901 96.228595 
L 165.021488 94.731074 
L 167.071074 93.233554 
L 169.120661 91.736033 
L 171.170248 90.238512 
L 173.219835 88.740992 
L 175.269421 87.243471 
L 177.319008 85.74595 
L 179.368595 84.24843 
L 181.418182 82.750909 
L 183.467769 81.253388 
L 185.517355 79.755868 
L 187.566942 78.258347 
L 189.616529 76.760826 
L 191.666116 75.263306 
L 193.715702 73.765785 
L 195.765289 72.268264 
L 197.814876 70.770744 
L 199.864463 69.273223 
L 201.91405 67.775702 
L 203.963636 66.278182 
L 206.013223 64.780661 
L 208.06281 63.28314 
L 210.112397 61.78562 
L 212.161983 60.288099 
L 214.21157 58.790579 
L 216.261157 57.293058 
L 218.310744 55.795537 
L 220.360331 54.298017 
L 222.409917 52.800496 
L 224.459504 51.302975 
L 226.509091 49.805455 
L 228.558678 48.307934 
L 230.608264 46.810413 
L 232.657851 45.312893 
L 234.707438 43.815372 
L 236.757025 42.317851 
L 238.806612 40.820331 
L 240.856198 39.32281 
L 242.905785 37.825289 
L 244.955372 36.327769 
L 247.004959 34.830248 
L 249.054545 33.332727 
" style="fill:none;stroke:#1f77b4;stroke-linecap:square;stroke-width:1.5;"/>
   </g>
   <g id="patch_3">
    <path d="M 36 189 
L 36 25.92 
" style="fill:none;stroke:#000000;stroke-linecap:square;stroke-linejoin:miter;stroke-width:0.8;"/>
   </g>
   <g id="patch_4">
    <path d="M 259.2 189 
L 259.2 25.92 
" style="fill:none;stroke:#000000;stroke-linecap:square;stroke-linejoin:miter;stroke-width:0.8;"/>
   </g>
   <g id="patch_5">
    <path d="M 36 189 
L 259.2 189 
" style="fill:none;stroke:#000000;stroke-linecap:square;stroke-linejoin:miter;stroke-width:0.8;"/>
   </g>
   <g id="patch_6">
    <path d="M 36 25.92 
L 259.2 25.92 
" style="fill:none;stroke:#000000;stroke-linecap:square;stroke-linejoin:miter;stroke-width:0.8;"/>
   </g>
  </g>
 </g>
 <defs>
  <clipPath id="p94e86bad1e">
   <rect height="163.08" width="223.2" x="36" y="25.92"/>
  </clipPath>
 </defs>
</svg>
