<?xml version="1.0" encoding="utf-8" standalone="no"?>
<!DOCTYPE svg PUBLIC "-//W3C//DTD SVG 1.1//EN"
  "http://www.w3.org/Graphics/SVG/1.1/DTD/svg11.dtd">
<!-- Created with matplotlib (https://matplotlib.org/) -->
<svg height="432pt" version="1.1" viewBox="0 0 1440 432" width="1440pt" xmlns="http://www.w3.org/2000/svg" xmlns:xlink="http://www.w3.org/1999/xlink">
 <defs>
  <style type="text/css">
*{stroke-linecap:butt;stroke-linejoin:round;}
  </style>
 </defs>
 <g id="figure_1">
  <g id="patch_1">
   <path d="M 0 432 
L 1440 432 
L 1440 0 
L 0 0 
z
" style="fill:#ffffff;"/>
  </g>
  <g id="axes_1">
   <g id="patch_2">
    <path d="M 180 200.094545 
L 372.413793 200.094545 
L 372.413793 51.84 
L 180 51.84 
z
" style="fill:#ffffff;"/>
   </g>
   <g id="matplotlib.axis_1">
    <g id="xtick_1">
     <g id="line2d_1">
      <defs>
       <path d="M 0 0 
L 0 3.5 
" id="m3baf579d06" style="stroke:#000000;stroke-width:0.8;"/>
      </defs>
      <g>
       <use style="stroke:#000000;stroke-width:0.8;" x="188.746082" xlink:href="#m3baf579d06" y="200.094545"/>
      </g>
     </g>
     <g id="text_1">
      <!-- −100 -->
      <defs>
       <path d="M 10.59375 35.5 
L 73.1875 35.5 
L 73.1875 27.203125 
L 10.59375 27.203125 
z
" id="DejaVuSans-8722"/>
       <path d="M 12.40625 8.296875 
L 28.515625 8.296875 
L 28.515625 63.921875 
L 10.984375 60.40625 
L 10.984375 69.390625 
L 28.421875 72.90625 
L 38.28125 72.90625 
L 38.28125 8.296875 
L 54.390625 8.296875 
L 54.390625 0 
L 12.40625 0 
z
" id="DejaVuSans-49"/>
       <path d="M 31.78125 66.40625 
Q 24.171875 66.40625 20.328125 58.90625 
Q 16.5 51.421875 16.5 36.375 
Q 16.5 21.390625 20.328125 13.890625 
Q 24.171875 6.390625 31.78125 6.390625 
Q 39.453125 6.390625 43.28125 13.890625 
Q 47.125 21.390625 47.125 36.375 
Q 47.125 51.421875 43.28125 58.90625 
Q 39.453125 66.40625 31.78125 66.40625 
z
M 31.78125 74.21875 
Q 44.046875 74.21875 50.515625 64.515625 
Q 56.984375 54.828125 56.984375 36.375 
Q 56.984375 17.96875 50.515625 8.265625 
Q 44.046875 -1.421875 31.78125 -1.421875 
Q 19.53125 -1.421875 13.0625 8.265625 
Q 6.59375 17.96875 6.59375 36.375 
Q 6.59375 54.828125 13.0625 64.515625 
Q 19.53125 74.21875 31.78125 74.21875 
z
" id="DejaVuSans-48"/>
      </defs>
      <g transform="translate(175.012488 214.692983)scale(0.1 -0.1)">
       <use xlink:href="#DejaVuSans-8722"/>
       <use x="83.789062" xlink:href="#DejaVuSans-49"/>
       <use x="147.412109" xlink:href="#DejaVuSans-48"/>
       <use x="211.035156" xlink:href="#DejaVuSans-48"/>
      </g>
     </g>
    </g>
    <g id="xtick_2">
     <g id="line2d_2">
      <g>
       <use style="stroke:#000000;stroke-width:0.8;" x="232.476489" xlink:href="#m3baf579d06" y="200.094545"/>
      </g>
     </g>
     <g id="text_2">
      <!-- −50 -->
      <defs>
       <path d="M 10.796875 72.90625 
L 49.515625 72.90625 
L 49.515625 64.59375 
L 19.828125 64.59375 
L 19.828125 46.734375 
Q 21.96875 47.46875 24.109375 47.828125 
Q 26.265625 48.1875 28.421875 48.1875 
Q 40.625 48.1875 47.75 41.5 
Q 54.890625 34.8125 54.890625 23.390625 
Q 54.890625 11.625 47.5625 5.09375 
Q 40.234375 -1.421875 26.90625 -1.421875 
Q 22.3125 -1.421875 17.546875 -0.640625 
Q 12.796875 0.140625 7.71875 1.703125 
L 7.71875 11.625 
Q 12.109375 9.234375 16.796875 8.0625 
Q 21.484375 6.890625 26.703125 6.890625 
Q 35.15625 6.890625 40.078125 11.328125 
Q 45.015625 15.765625 45.015625 23.390625 
Q 45.015625 31 40.078125 35.4375 
Q 35.15625 39.890625 26.703125 39.890625 
Q 22.75 39.890625 18.8125 39.015625 
Q 14.890625 38.140625 10.796875 36.28125 
z
" id="DejaVuSans-53"/>
      </defs>
      <g transform="translate(221.924145 214.692983)scale(0.1 -0.1)">
       <use xlink:href="#DejaVuSans-8722"/>
       <use x="83.789062" xlink:href="#DejaVuSans-53"/>
       <use x="147.412109" xlink:href="#DejaVuSans-48"/>
      </g>
     </g>
    </g>
    <g id="xtick_3">
     <g id="line2d_3">
      <g>
       <use style="stroke:#000000;stroke-width:0.8;" x="276.206897" xlink:href="#m3baf579d06" y="200.094545"/>
      </g>
     </g>
     <g id="text_3">
      <!-- 0 -->
      <g transform="translate(273.025647 214.692983)scale(0.1 -0.1)">
       <use xlink:href="#DejaVuSans-48"/>
      </g>
     </g>
    </g>
    <g id="xtick_4">
     <g id="line2d_4">
      <g>
       <use style="stroke:#000000;stroke-width:0.8;" x="319.937304" xlink:href="#m3baf579d06" y="200.094545"/>
      </g>
     </g>
     <g id="text_4">
      <!-- 50 -->
      <g transform="translate(313.574804 214.692983)scale(0.1 -0.1)">
       <use xlink:href="#DejaVuSans-53"/>
       <use x="63.623047" xlink:href="#DejaVuSans-48"/>
      </g>
     </g>
    </g>
    <g id="xtick_5">
     <g id="line2d_5">
      <g>
       <use style="stroke:#000000;stroke-width:0.8;" x="363.667712" xlink:href="#m3baf579d06" y="200.094545"/>
      </g>
     </g>
     <g id="text_5">
      <!-- 100 -->
      <g transform="translate(354.123962 214.692983)scale(0.1 -0.1)">
       <use xlink:href="#DejaVuSans-49"/>
       <use x="63.623047" xlink:href="#DejaVuSans-48"/>
       <use x="127.246094" xlink:href="#DejaVuSans-48"/>
      </g>
     </g>
    </g>
   </g>
   <g id="matplotlib.axis_2">
    <g id="ytick_1">
     <g id="line2d_6">
      <defs>
       <path d="M 0 0 
L -3.5 0 
" id="md96faa8dab" style="stroke:#000000;stroke-width:0.8;"/>
      </defs>
      <g>
       <use style="stroke:#000000;stroke-width:0.8;" x="180" xlink:href="#md96faa8dab" y="179.327936"/>
      </g>
     </g>
     <g id="text_6">
      <!-- −40 -->
      <defs>
       <path d="M 37.796875 64.3125 
L 12.890625 25.390625 
L 37.796875 25.390625 
z
M 35.203125 72.90625 
L 47.609375 72.90625 
L 47.609375 25.390625 
L 58.015625 25.390625 
L 58.015625 17.1875 
L 47.609375 17.1875 
L 47.609375 0 
L 37.796875 0 
L 37.796875 17.1875 
L 4.890625 17.1875 
L 4.890625 26.703125 
z
" id="DejaVuSans-52"/>
      </defs>
      <g transform="translate(151.895312 183.127154)scale(0.1 -0.1)">
       <use xlink:href="#DejaVuSans-8722"/>
       <use x="83.789062" xlink:href="#DejaVuSans-52"/>
       <use x="147.412109" xlink:href="#DejaVuSans-48"/>
      </g>
     </g>
    </g>
    <g id="ytick_2">
     <g id="line2d_7">
      <g>
       <use style="stroke:#000000;stroke-width:0.8;" x="180" xlink:href="#md96faa8dab" y="151.272402"/>
      </g>
     </g>
     <g id="text_7">
      <!-- −20 -->
      <defs>
       <path d="M 19.1875 8.296875 
L 53.609375 8.296875 
L 53.609375 0 
L 7.328125 0 
L 7.328125 8.296875 
Q 12.9375 14.109375 22.625 23.890625 
Q 32.328125 33.6875 34.8125 36.53125 
Q 39.546875 41.84375 41.421875 45.53125 
Q 43.3125 49.21875 43.3125 52.78125 
Q 43.3125 58.59375 39.234375 62.25 
Q 35.15625 65.921875 28.609375 65.921875 
Q 23.96875 65.921875 18.8125 64.3125 
Q 13.671875 62.703125 7.8125 59.421875 
L 7.8125 69.390625 
Q 13.765625 71.78125 18.9375 73 
Q 24.125 74.21875 28.421875 74.21875 
Q 39.75 74.21875 46.484375 68.546875 
Q 53.21875 62.890625 53.21875 53.421875 
Q 53.21875 48.921875 51.53125 44.890625 
Q 49.859375 40.875 45.40625 35.40625 
Q 44.1875 33.984375 37.640625 27.21875 
Q 31.109375 20.453125 19.1875 8.296875 
z
" id="DejaVuSans-50"/>
      </defs>
      <g transform="translate(151.895312 155.071621)scale(0.1 -0.1)">
       <use xlink:href="#DejaVuSans-8722"/>
       <use x="83.789062" xlink:href="#DejaVuSans-50"/>
       <use x="147.412109" xlink:href="#DejaVuSans-48"/>
      </g>
     </g>
    </g>
    <g id="ytick_3">
     <g id="line2d_8">
      <g>
       <use style="stroke:#000000;stroke-width:0.8;" x="180" xlink:href="#md96faa8dab" y="123.216869"/>
      </g>
     </g>
     <g id="text_8">
      <!-- 0 -->
      <g transform="translate(166.6375 127.016087)scale(0.1 -0.1)">
       <use xlink:href="#DejaVuSans-48"/>
      </g>
     </g>
    </g>
    <g id="ytick_4">
     <g id="line2d_9">
      <g>
       <use style="stroke:#000000;stroke-width:0.8;" x="180" xlink:href="#md96faa8dab" y="95.161335"/>
      </g>
     </g>
     <g id="text_9">
      <!-- 20 -->
      <g transform="translate(160.275 98.960554)scale(0.1 -0.1)">
       <use xlink:href="#DejaVuSans-50"/>
       <use x="63.623047" xlink:href="#DejaVuSans-48"/>
      </g>
     </g>
    </g>
    <g id="ytick_5">
     <g id="line2d_10">
      <g>
       <use style="stroke:#000000;stroke-width:0.8;" x="180" xlink:href="#md96faa8dab" y="67.105801"/>
      </g>
     </g>
     <g id="text_10">
      <!-- 40 -->
      <g transform="translate(160.275 70.90502)scale(0.1 -0.1)">
       <use xlink:href="#DejaVuSans-52"/>
       <use x="63.623047" xlink:href="#DejaVuSans-48"/>
      </g>
     </g>
    </g>
   </g>
   <g id="line2d_11">
    <path clip-path="url(#p71743c928c)" d="M 188.746082 193.355702 
L 190.512967 191.938756 
L 192.279853 190.521809 
L 194.046739 189.104863 
L 195.813624 187.687916 
L 197.58051 186.27097 
L 199.347396 184.854023 
L 201.114275 183.437082 
L 202.88116 182.020135 
L 204.648046 180.603183 
L 206.414932 179.186237 
L 208.181817 177.769285 
L 209.948703 176.352333 
L 211.715582 174.935381 
L 213.482468 173.518418 
L 215.249354 172.101445 
L 217.016239 170.684456 
L 218.783125 169.267445 
L 220.550011 167.850389 
L 222.316896 166.433271 
L 224.083779 165.016051 
L 225.850664 163.598669 
L 227.61755 162.181026 
L 229.384436 160.762977 
L 231.151325 159.344276 
L 232.91821 157.924549 
L 234.685096 156.503204 
L 236.451982 155.079301 
L 238.218864 153.651368 
L 239.98575 152.217095 
L 241.752636 150.772897 
L 243.519521 149.313235 
L 245.286404 147.829682 
L 247.053289 146.309688 
L 248.820173 144.735237 
L 250.587059 143.081967 
L 252.353943 141.320255 
L 254.120829 139.420782 
L 255.887714 137.367263 
L 257.6546 135.174979 
L 259.421484 132.904268 
L 261.18837 130.65175 
L 262.955254 128.515508 
L 264.72214 126.55739 
L 266.489024 124.79002 
L 268.255909 123.190137 
L 270.022795 121.720186 
L 271.78968 120.343804 
L 273.556565 119.032458 
L 275.32345 117.766378 
L 277.090335 116.5331 
L 278.85722 115.325523 
L 280.624105 114.140254 
L 282.39099 112.976288 
L 284.157875 111.834034 
L 285.92476 110.714475 
L 287.691654 109.618398 
L 289.458538 108.545669 
L 291.225423 107.494534 
L 292.992309 106.461136 
L 294.759193 105.439396 
L 296.526079 104.421343 
L 298.292964 103.397934 
L 300.05985 102.360147 
L 301.826734 101.300056 
L 303.59362 100.211588 
L 305.360504 99.09084 
L 307.127389 97.935951 
L 308.894275 96.74675 
L 310.661161 95.524297 
L 312.428047 94.270515 
L 314.194929 92.987974 
L 315.961815 91.679793 
L 317.7287 90.349709 
L 319.495586 89.002143 
L 321.262468 87.64224 
L 323.029354 86.275797 
L 324.79624 84.909048 
L 326.563125 83.548272 
L 328.330011 82.199323 
L 330.096897 80.86716 
L 331.863782 79.555476 
L 333.630668 78.266514 
L 335.397554 77.001059 
L 337.16444 75.758662 
L 338.931325 74.537879 
L 340.698211 73.336654 
L 342.46509 72.152585 
L 344.231976 70.983194 
L 345.998861 69.826089 
L 347.765747 68.679098 
L 349.532633 67.540311 
L 351.299518 66.408084 
L 353.066397 65.281064 
L 354.833283 64.158121 
L 356.600169 63.038362 
L 358.367055 61.921065 
L 360.13394 60.805662 
L 361.900826 59.691704 
L 363.667712 58.578843 
" style="fill:none;stroke:#1f77b4;stroke-linecap:square;stroke-width:1.5;"/>
   </g>
   <g id="patch_3">
    <path d="M 180 200.094545 
L 180 51.84 
" style="fill:none;stroke:#000000;stroke-linecap:square;stroke-linejoin:miter;stroke-width:0.8;"/>
   </g>
   <g id="patch_4">
    <path d="M 372.413793 200.094545 
L 372.413793 51.84 
" style="fill:none;stroke:#000000;stroke-linecap:square;stroke-linejoin:miter;stroke-width:0.8;"/>
   </g>
   <g id="patch_5">
    <path d="M 180 200.094545 
L 372.413793 200.094545 
" style="fill:none;stroke:#000000;stroke-linecap:square;stroke-linejoin:miter;stroke-width:0.8;"/>
   </g>
   <g id="patch_6">
    <path d="M 180 51.84 
L 372.413793 51.84 
" style="fill:none;stroke:#000000;stroke-linecap:square;stroke-linejoin:miter;stroke-width:0.8;"/>
   </g>
  </g>
  <g id="axes_2">
   <g id="patch_7">
    <path d="M 410.896552 200.094545 
L 603.310345 200.094545 
L 603.310345 51.84 
L 410.896552 51.84 
z
" style="fill:#ffffff;"/>
   </g>
   <g id="matplotlib.axis_3">
    <g id="xtick_6">
     <g id="line2d_12">
      <g>
       <use style="stroke:#000000;stroke-width:0.8;" x="419.642633" xlink:href="#m3baf579d06" y="200.094545"/>
      </g>
     </g>
     <g id="text_11">
      <!-- −100 -->
      <g transform="translate(405.909039 214.692983)scale(0.1 -0.1)">
       <use xlink:href="#DejaVuSans-8722"/>
       <use x="83.789062" xlink:href="#DejaVuSans-49"/>
       <use x="147.412109" xlink:href="#DejaVuSans-48"/>
       <use x="211.035156" xlink:href="#DejaVuSans-48"/>
      </g>
     </g>
    </g>
    <g id="xtick_7">
     <g id="line2d_13">
      <g>
       <use style="stroke:#000000;stroke-width:0.8;" x="463.373041" xlink:href="#m3baf579d06" y="200.094545"/>
      </g>
     </g>
     <g id="text_12">
      <!-- −50 -->
      <g transform="translate(452.820697 214.692983)scale(0.1 -0.1)">
       <use xlink:href="#DejaVuSans-8722"/>
       <use x="83.789062" xlink:href="#DejaVuSans-53"/>
       <use x="147.412109" xlink:href="#DejaVuSans-48"/>
      </g>
     </g>
    </g>
    <g id="xtick_8">
     <g id="line2d_14">
      <g>
       <use style="stroke:#000000;stroke-width:0.8;" x="507.103448" xlink:href="#m3baf579d06" y="200.094545"/>
      </g>
     </g>
     <g id="text_13">
      <!-- 0 -->
      <g transform="translate(503.922198 214.692983)scale(0.1 -0.1)">
       <use xlink:href="#DejaVuSans-48"/>
      </g>
     </g>
    </g>
    <g id="xtick_9">
     <g id="line2d_15">
      <g>
       <use style="stroke:#000000;stroke-width:0.8;" x="550.833856" xlink:href="#m3baf579d06" y="200.094545"/>
      </g>
     </g>
     <g id="text_14">
      <!-- 50 -->
      <g transform="translate(544.471356 214.692983)scale(0.1 -0.1)">
       <use xlink:href="#DejaVuSans-53"/>
       <use x="63.623047" xlink:href="#DejaVuSans-48"/>
      </g>
     </g>
    </g>
    <g id="xtick_10">
     <g id="line2d_16">
      <g>
       <use style="stroke:#000000;stroke-width:0.8;" x="594.564263" xlink:href="#m3baf579d06" y="200.094545"/>
      </g>
     </g>
     <g id="text_15">
      <!-- 100 -->
      <g transform="translate(585.020513 214.692983)scale(0.1 -0.1)">
       <use xlink:href="#DejaVuSans-49"/>
       <use x="63.623047" xlink:href="#DejaVuSans-48"/>
       <use x="127.246094" xlink:href="#DejaVuSans-48"/>
      </g>
     </g>
    </g>
   </g>
   <g id="matplotlib.axis_4">
    <g id="ytick_6">
     <g id="line2d_17">
      <g>
       <use style="stroke:#000000;stroke-width:0.8;" x="410.896552" xlink:href="#md96faa8dab" y="194.598998"/>
      </g>
     </g>
     <g id="text_16">
      <!-- −4 -->
      <g transform="translate(389.154364 198.398216)scale(0.1 -0.1)">
       <use xlink:href="#DejaVuSans-8722"/>
       <use x="83.789062" xlink:href="#DejaVuSans-52"/>
      </g>
     </g>
    </g>
    <g id="ytick_7">
     <g id="line2d_18">
      <g>
       <use style="stroke:#000000;stroke-width:0.8;" x="410.896552" xlink:href="#md96faa8dab" y="162.974855"/>
      </g>
     </g>
     <g id="text_17">
      <!-- −2 -->
      <g transform="translate(389.154364 166.774074)scale(0.1 -0.1)">
       <use xlink:href="#DejaVuSans-8722"/>
       <use x="83.789062" xlink:href="#DejaVuSans-50"/>
      </g>
     </g>
    </g>
    <g id="ytick_8">
     <g id="line2d_19">
      <g>
       <use style="stroke:#000000;stroke-width:0.8;" x="410.896552" xlink:href="#md96faa8dab" y="131.350712"/>
      </g>
     </g>
     <g id="text_18">
      <!-- 0 -->
      <g transform="translate(397.534052 135.149931)scale(0.1 -0.1)">
       <use xlink:href="#DejaVuSans-48"/>
      </g>
     </g>
    </g>
    <g id="ytick_9">
     <g id="line2d_20">
      <g>
       <use style="stroke:#000000;stroke-width:0.8;" x="410.896552" xlink:href="#md96faa8dab" y="99.726569"/>
      </g>
     </g>
     <g id="text_19">
      <!-- 2 -->
      <g transform="translate(397.534052 103.525788)scale(0.1 -0.1)">
       <use xlink:href="#DejaVuSans-50"/>
      </g>
     </g>
    </g>
    <g id="ytick_10">
     <g id="line2d_21">
      <g>
       <use style="stroke:#000000;stroke-width:0.8;" x="410.896552" xlink:href="#md96faa8dab" y="68.102426"/>
      </g>
     </g>
     <g id="text_20">
      <!-- 4 -->
      <g transform="translate(397.534052 71.901645)scale(0.1 -0.1)">
       <use xlink:href="#DejaVuSans-52"/>
      </g>
     </g>
    </g>
   </g>
   <g id="line2d_22">
    <path clip-path="url(#p4b5f72007e)" d="M 419.642633 131.350711 
L 421.409519 131.350711 
L 423.176405 131.35071 
L 424.94329 131.350709 
L 426.710176 131.350708 
L 428.477062 131.350706 
L 430.243947 131.350703 
L 432.010826 131.350697 
L 433.777712 131.350687 
L 435.544598 131.350671 
L 437.311483 131.350645 
L 439.078369 131.350602 
L 440.845255 131.350533 
L 442.612134 131.35042 
L 444.37902 131.350237 
L 446.145905 131.349943 
L 447.912791 131.34947 
L 449.679677 131.348711 
L 451.446562 131.347496 
L 453.213448 131.345556 
L 454.98033 131.342463 
L 456.747216 131.337536 
L 458.514102 131.329701 
L 460.280987 131.317253 
L 462.047876 131.297501 
L 463.814762 131.266188 
L 465.581648 131.216604 
L 467.348534 131.138179 
L 469.115416 131.01431 
L 470.882302 130.819009 
L 472.649187 130.511824 
L 474.416073 130.030334 
L 476.182955 129.279536 
L 477.949841 128.117982 
L 479.716725 126.342571 
L 481.483611 123.678736 
L 483.250495 119.792538 
L 485.01738 114.353511 
L 486.784266 107.178084 
L 488.551152 98.438491 
L 490.318036 88.814859 
L 492.084922 79.39632 
L 493.851806 71.288422 
L 495.618691 65.188345 
L 497.385576 61.238373 
L 499.152461 59.176303 
L 500.919347 58.578843 
L 502.686232 59.036078 
L 504.453116 60.226399 
L 506.220001 61.926959 
L 507.986887 63.997255 
L 509.753772 66.357268 
L 511.520657 68.968717 
L 513.287542 71.820312 
L 515.054427 74.916641 
L 516.821312 78.268779 
L 518.588205 81.885674 
L 520.35509 85.765688 
L 522.121975 89.889093 
L 523.888861 94.212454 
L 525.655745 98.667207 
L 527.42263 103.163513 
L 529.189516 107.599452 
L 530.956402 111.873335 
L 532.723286 115.895807 
L 534.490171 119.598414 
L 536.257056 122.937128 
L 538.023941 125.891038 
L 539.790827 128.458176 
L 541.557713 130.6505 
L 543.324598 132.489709 
L 545.091481 134.004689 
L 546.858366 135.230696 
L 548.625252 136.209808 
L 550.392138 136.991849 
L 552.15902 137.634812 
L 553.925906 138.204096 
L 555.692791 138.769915 
L 557.459677 139.403065 
L 559.226563 140.169531 
L 560.993449 141.125215 
L 562.760334 142.311758 
L 564.52722 143.75437 
L 566.294106 145.462014 
L 568.060991 147.429482 
L 569.827877 149.640654 
L 571.594763 152.072247 
L 573.361642 154.697213 
L 575.128527 157.487615 
L 576.895413 160.416565 
L 578.662299 163.459512 
L 580.429184 166.594889 
L 582.19607 169.804262 
L 583.962949 173.072249 
L 585.729835 176.386282 
L 587.496721 179.736177 
L 589.263606 183.113816 
L 591.030492 186.512776 
L 592.797378 189.928049 
L 594.564263 193.355702 
" style="fill:none;stroke:#1f77b4;stroke-linecap:square;stroke-width:1.5;"/>
   </g>
   <g id="patch_8">
    <path d="M 410.896552 200.094545 
L 410.896552 51.84 
" style="fill:none;stroke:#000000;stroke-linecap:square;stroke-linejoin:miter;stroke-width:0.8;"/>
   </g>
   <g id="patch_9">
    <path d="M 603.310345 200.094545 
L 603.310345 51.84 
" style="fill:none;stroke:#000000;stroke-linecap:square;stroke-linejoin:miter;stroke-width:0.8;"/>
   </g>
   <g id="patch_10">
    <path d="M 410.896552 200.094545 
L 603.310345 200.094545 
" style="fill:none;stroke:#000000;stroke-linecap:square;stroke-linejoin:miter;stroke-width:0.8;"/>
   </g>
   <g id="patch_11">
    <path d="M 410.896552 51.84 
L 603.310345 51.84 
" style="fill:none;stroke:#000000;stroke-linecap:square;stroke-linejoin:miter;stroke-width:0.8;"/>
   </g>
  </g>
  <g id="axes_3">
   <g id="patch_12">
    <path d="M 641.793103 200.094545 
L 834.206897 200.094545 
L 834.206897 51.84 
L 641.793103 51.84 
z
" style="fill:#ffffff;"/>
   </g>
   <g id="matplotlib.axis_5">
    <g id="xtick_11">
     <g id="line2d_23">
      <g>
       <use style="stroke:#000000;stroke-width:0.8;" x="650.539185" xlink:href="#m3baf579d06" y="200.094545"/>
      </g>
     </g>
     <g id="text_21">
      <!-- −100 -->
      <g transform="translate(636.805591 214.692983)scale(0.1 -0.1)">
       <use xlink:href="#DejaVuSans-8722"/>
       <use x="83.789062" xlink:href="#DejaVuSans-49"/>
       <use x="147.412109" xlink:href="#DejaVuSans-48"/>
       <use x="211.035156" xlink:href="#DejaVuSans-48"/>
      </g>
     </g>
    </g>
    <g id="xtick_12">
     <g id="line2d_24">
      <g>
       <use style="stroke:#000000;stroke-width:0.8;" x="694.269592" xlink:href="#m3baf579d06" y="200.094545"/>
      </g>
     </g>
     <g id="text_22">
      <!-- −50 -->
      <g transform="translate(683.717249 214.692983)scale(0.1 -0.1)">
       <use xlink:href="#DejaVuSans-8722"/>
       <use x="83.789062" xlink:href="#DejaVuSans-53"/>
       <use x="147.412109" xlink:href="#DejaVuSans-48"/>
      </g>
     </g>
    </g>
    <g id="xtick_13">
     <g id="line2d_25">
      <g>
       <use style="stroke:#000000;stroke-width:0.8;" x="738" xlink:href="#m3baf579d06" y="200.094545"/>
      </g>
     </g>
     <g id="text_23">
      <!-- 0 -->
      <g transform="translate(734.81875 214.692983)scale(0.1 -0.1)">
       <use xlink:href="#DejaVuSans-48"/>
      </g>
     </g>
    </g>
    <g id="xtick_14">
     <g id="line2d_26">
      <g>
       <use style="stroke:#000000;stroke-width:0.8;" x="781.730408" xlink:href="#m3baf579d06" y="200.094545"/>
      </g>
     </g>
     <g id="text_24">
      <!-- 50 -->
      <g transform="translate(775.367908 214.692983)scale(0.1 -0.1)">
       <use xlink:href="#DejaVuSans-53"/>
       <use x="63.623047" xlink:href="#DejaVuSans-48"/>
      </g>
     </g>
    </g>
    <g id="xtick_15">
     <g id="line2d_27">
      <g>
       <use style="stroke:#000000;stroke-width:0.8;" x="825.460815" xlink:href="#m3baf579d06" y="200.094545"/>
      </g>
     </g>
     <g id="text_25">
      <!-- 100 -->
      <g transform="translate(815.917065 214.692983)scale(0.1 -0.1)">
       <use xlink:href="#DejaVuSans-49"/>
       <use x="63.623047" xlink:href="#DejaVuSans-48"/>
       <use x="127.246094" xlink:href="#DejaVuSans-48"/>
      </g>
     </g>
    </g>
   </g>
   <g id="matplotlib.axis_6">
    <g id="ytick_11">
     <g id="line2d_28">
      <g>
       <use style="stroke:#000000;stroke-width:0.8;" x="641.793103" xlink:href="#md96faa8dab" y="193.355723"/>
      </g>
     </g>
     <g id="text_26">
      <!-- 0.0 -->
      <defs>
       <path d="M 10.6875 12.40625 
L 21 12.40625 
L 21 0 
L 10.6875 0 
z
" id="DejaVuSans-46"/>
      </defs>
      <g transform="translate(618.889978 197.154941)scale(0.1 -0.1)">
       <use xlink:href="#DejaVuSans-48"/>
       <use x="63.623047" xlink:href="#DejaVuSans-46"/>
       <use x="95.410156" xlink:href="#DejaVuSans-48"/>
      </g>
     </g>
    </g>
    <g id="ytick_12">
     <g id="line2d_29">
      <g>
       <use style="stroke:#000000;stroke-width:0.8;" x="641.793103" xlink:href="#md96faa8dab" y="171.477046"/>
      </g>
     </g>
     <g id="text_27">
      <!-- 0.5 -->
      <g transform="translate(618.889978 175.276265)scale(0.1 -0.1)">
       <use xlink:href="#DejaVuSans-48"/>
       <use x="63.623047" xlink:href="#DejaVuSans-46"/>
       <use x="95.410156" xlink:href="#DejaVuSans-53"/>
      </g>
     </g>
    </g>
    <g id="ytick_13">
     <g id="line2d_30">
      <g>
       <use style="stroke:#000000;stroke-width:0.8;" x="641.793103" xlink:href="#md96faa8dab" y="149.59837"/>
      </g>
     </g>
     <g id="text_28">
      <!-- 1.0 -->
      <g transform="translate(618.889978 153.397588)scale(0.1 -0.1)">
       <use xlink:href="#DejaVuSans-49"/>
       <use x="63.623047" xlink:href="#DejaVuSans-46"/>
       <use x="95.410156" xlink:href="#DejaVuSans-48"/>
      </g>
     </g>
    </g>
    <g id="ytick_14">
     <g id="line2d_31">
      <g>
       <use style="stroke:#000000;stroke-width:0.8;" x="641.793103" xlink:href="#md96faa8dab" y="127.719693"/>
      </g>
     </g>
     <g id="text_29">
      <!-- 1.5 -->
      <g transform="translate(618.889978 131.518912)scale(0.1 -0.1)">
       <use xlink:href="#DejaVuSans-49"/>
       <use x="63.623047" xlink:href="#DejaVuSans-46"/>
       <use x="95.410156" xlink:href="#DejaVuSans-53"/>
      </g>
     </g>
    </g>
    <g id="ytick_15">
     <g id="line2d_32">
      <g>
       <use style="stroke:#000000;stroke-width:0.8;" x="641.793103" xlink:href="#md96faa8dab" y="105.841017"/>
      </g>
     </g>
     <g id="text_30">
      <!-- 2.0 -->
      <g transform="translate(618.889978 109.640235)scale(0.1 -0.1)">
       <use xlink:href="#DejaVuSans-50"/>
       <use x="63.623047" xlink:href="#DejaVuSans-46"/>
       <use x="95.410156" xlink:href="#DejaVuSans-48"/>
      </g>
     </g>
    </g>
    <g id="ytick_16">
     <g id="line2d_33">
      <g>
       <use style="stroke:#000000;stroke-width:0.8;" x="641.793103" xlink:href="#md96faa8dab" y="83.96234"/>
      </g>
     </g>
     <g id="text_31">
      <!-- 2.5 -->
      <g transform="translate(618.889978 87.761559)scale(0.1 -0.1)">
       <use xlink:href="#DejaVuSans-50"/>
       <use x="63.623047" xlink:href="#DejaVuSans-46"/>
       <use x="95.410156" xlink:href="#DejaVuSans-53"/>
      </g>
     </g>
    </g>
    <g id="ytick_17">
     <g id="line2d_34">
      <g>
       <use style="stroke:#000000;stroke-width:0.8;" x="641.793103" xlink:href="#md96faa8dab" y="62.083664"/>
      </g>
     </g>
     <g id="text_32">
      <!-- 3.0 -->
      <defs>
       <path d="M 40.578125 39.3125 
Q 47.65625 37.796875 51.625 33 
Q 55.609375 28.21875 55.609375 21.1875 
Q 55.609375 10.40625 48.1875 4.484375 
Q 40.765625 -1.421875 27.09375 -1.421875 
Q 22.515625 -1.421875 17.65625 -0.515625 
Q 12.796875 0.390625 7.625 2.203125 
L 7.625 11.71875 
Q 11.71875 9.328125 16.59375 8.109375 
Q 21.484375 6.890625 26.8125 6.890625 
Q 36.078125 6.890625 40.9375 10.546875 
Q 45.796875 14.203125 45.796875 21.1875 
Q 45.796875 27.640625 41.28125 31.265625 
Q 36.765625 34.90625 28.71875 34.90625 
L 20.21875 34.90625 
L 20.21875 43.015625 
L 29.109375 43.015625 
Q 36.375 43.015625 40.234375 45.921875 
Q 44.09375 48.828125 44.09375 54.296875 
Q 44.09375 59.90625 40.109375 62.90625 
Q 36.140625 65.921875 28.71875 65.921875 
Q 24.65625 65.921875 20.015625 65.03125 
Q 15.375 64.15625 9.8125 62.3125 
L 9.8125 71.09375 
Q 15.4375 72.65625 20.34375 73.4375 
Q 25.25 74.21875 29.59375 74.21875 
Q 40.828125 74.21875 47.359375 69.109375 
Q 53.90625 64.015625 53.90625 55.328125 
Q 53.90625 49.265625 50.4375 45.09375 
Q 46.96875 40.921875 40.578125 39.3125 
z
" id="DejaVuSans-51"/>
      </defs>
      <g transform="translate(618.889978 65.882882)scale(0.1 -0.1)">
       <use xlink:href="#DejaVuSans-51"/>
       <use x="63.623047" xlink:href="#DejaVuSans-46"/>
       <use x="95.410156" xlink:href="#DejaVuSans-48"/>
      </g>
     </g>
    </g>
   </g>
   <g id="line2d_35">
    <path clip-path="url(#p1c872023ca)" d="M 650.539185 193.355702 
L 652.306071 193.355698 
L 654.072956 193.355692 
L 655.839842 193.355684 
L 657.606728 193.355675 
L 659.373613 193.355664 
L 661.140499 193.355649 
L 662.907378 193.355632 
L 664.674264 193.35561 
L 666.44115 193.355583 
L 668.208035 193.35555 
L 669.974921 193.355509 
L 671.741807 193.355458 
L 673.508686 193.355394 
L 675.275571 193.355316 
L 677.042457 193.355219 
L 678.809343 193.355099 
L 680.576228 193.35495 
L 682.343114 193.354766 
L 684.11 193.354539 
L 685.876882 193.354257 
L 687.643768 193.353909 
L 689.410653 193.353478 
L 691.177539 193.352946 
L 692.944428 193.352287 
L 694.711314 193.351473 
L 696.4782 193.350467 
L 698.245085 193.349223 
L 700.011968 193.347687 
L 701.778853 193.345789 
L 703.545739 193.343445 
L 705.312625 193.340551 
L 707.079507 193.336977 
L 708.846393 193.332567 
L 710.613277 193.327124 
L 712.380162 193.320408 
L 714.147046 193.312125 
L 715.913932 193.301909 
L 717.680818 193.289315 
L 719.447704 193.273791 
L 721.214588 193.254662 
L 722.981473 193.231096 
L 724.748357 193.202074 
L 726.515243 193.166344 
L 728.282128 193.122368 
L 730.049013 193.068264 
L 731.815898 193.001721 
L 733.582783 192.919913 
L 735.349668 192.819383 
L 737.116553 192.695899 
L 738.883438 192.544299 
L 740.650324 192.358283 
L 742.417208 192.130179 
L 744.184093 191.850653 
L 745.950979 191.508381 
L 747.717864 191.089644 
L 749.484757 190.577877 
L 751.251642 189.953143 
L 753.018527 189.191545 
L 754.785412 188.264585 
L 756.552296 187.138497 
L 758.319182 185.773585 
L 760.086068 184.123648 
L 761.852954 182.135617 
L 763.619838 179.749519 
L 765.386723 176.899074 
L 767.153607 173.51316 
L 768.920493 169.518595 
L 770.687379 164.844623 
L 772.454264 159.429456 
L 774.22115 153.229244 
L 775.988032 146.229152 
L 777.754918 138.455821 
L 779.521804 129.989616 
L 781.288689 120.974074 
L 783.055572 111.619192 
L 784.822457 102.19569 
L 786.589343 93.01859 
L 788.356229 84.420924 
L 790.123115 76.721659 
L 791.89 70.193815 
L 793.656886 65.039502 
L 795.423772 61.376273 
L 797.190657 59.236731 
L 798.957543 58.578843 
L 800.724429 59.303333 
L 802.491314 61.273481 
L 804.258193 64.333665 
L 806.025079 68.324581 
L 807.791965 73.093922 
L 809.55885 78.503083 
L 811.325736 84.430606 
L 813.092622 90.772917 
L 814.859501 97.443688 
L 816.626387 104.37233 
L 818.393272 111.501779 
L 820.160158 118.786589 
L 821.927044 126.190821 
L 823.693929 133.686338 
L 825.460815 141.251253 
" style="fill:none;stroke:#1f77b4;stroke-linecap:square;stroke-width:1.5;"/>
   </g>
   <g id="patch_13">
    <path d="M 641.793103 200.094545 
L 641.793103 51.84 
" style="fill:none;stroke:#000000;stroke-linecap:square;stroke-linejoin:miter;stroke-width:0.8;"/>
   </g>
   <g id="patch_14">
    <path d="M 834.206897 200.094545 
L 834.206897 51.84 
" style="fill:none;stroke:#000000;stroke-linecap:square;stroke-linejoin:miter;stroke-width:0.8;"/>
   </g>
   <g id="patch_15">
    <path d="M 641.793103 200.094545 
L 834.206897 200.094545 
" style="fill:none;stroke:#000000;stroke-linecap:square;stroke-linejoin:miter;stroke-width:0.8;"/>
   </g>
   <g id="patch_16">
    <path d="M 641.793103 51.84 
L 834.206897 51.84 
" style="fill:none;stroke:#000000;stroke-linecap:square;stroke-linejoin:miter;stroke-width:0.8;"/>
   </g>
  </g>
  <g id="axes_4">
   <g id="patch_17">
    <path d="M 872.689655 200.094545 
L 1065.103448 200.094545 
L 1065.103448 51.84 
L 872.689655 51.84 
z
" style="fill:#ffffff;"/>
   </g>
   <g id="matplotlib.axis_7">
    <g id="xtick_16">
     <g id="line2d_36">
      <g>
       <use style="stroke:#000000;stroke-width:0.8;" x="881.435737" xlink:href="#m3baf579d06" y="200.094545"/>
      </g>
     </g>
     <g id="text_33">
      <!-- −100 -->
      <g transform="translate(867.702143 214.692983)scale(0.1 -0.1)">
       <use xlink:href="#DejaVuSans-8722"/>
       <use x="83.789062" xlink:href="#DejaVuSans-49"/>
       <use x="147.412109" xlink:href="#DejaVuSans-48"/>
       <use x="211.035156" xlink:href="#DejaVuSans-48"/>
      </g>
     </g>
    </g>
    <g id="xtick_17">
     <g id="line2d_37">
      <g>
       <use style="stroke:#000000;stroke-width:0.8;" x="925.166144" xlink:href="#m3baf579d06" y="200.094545"/>
      </g>
     </g>
     <g id="text_34">
      <!-- −50 -->
      <g transform="translate(914.6138 214.692983)scale(0.1 -0.1)">
       <use xlink:href="#DejaVuSans-8722"/>
       <use x="83.789062" xlink:href="#DejaVuSans-53"/>
       <use x="147.412109" xlink:href="#DejaVuSans-48"/>
      </g>
     </g>
    </g>
    <g id="xtick_18">
     <g id="line2d_38">
      <g>
       <use style="stroke:#000000;stroke-width:0.8;" x="968.896552" xlink:href="#m3baf579d06" y="200.094545"/>
      </g>
     </g>
     <g id="text_35">
      <!-- 0 -->
      <g transform="translate(965.715302 214.692983)scale(0.1 -0.1)">
       <use xlink:href="#DejaVuSans-48"/>
      </g>
     </g>
    </g>
    <g id="xtick_19">
     <g id="line2d_39">
      <g>
       <use style="stroke:#000000;stroke-width:0.8;" x="1012.626959" xlink:href="#m3baf579d06" y="200.094545"/>
      </g>
     </g>
     <g id="text_36">
      <!-- 50 -->
      <g transform="translate(1006.264459 214.692983)scale(0.1 -0.1)">
       <use xlink:href="#DejaVuSans-53"/>
       <use x="63.623047" xlink:href="#DejaVuSans-48"/>
      </g>
     </g>
    </g>
    <g id="xtick_20">
     <g id="line2d_40">
      <g>
       <use style="stroke:#000000;stroke-width:0.8;" x="1056.357367" xlink:href="#m3baf579d06" y="200.094545"/>
      </g>
     </g>
     <g id="text_37">
      <!-- 100 -->
      <g transform="translate(1046.813617 214.692983)scale(0.1 -0.1)">
       <use xlink:href="#DejaVuSans-49"/>
       <use x="63.623047" xlink:href="#DejaVuSans-48"/>
       <use x="127.246094" xlink:href="#DejaVuSans-48"/>
      </g>
     </g>
    </g>
   </g>
   <g id="matplotlib.axis_8">
    <g id="ytick_18">
     <g id="line2d_41">
      <g>
       <use style="stroke:#000000;stroke-width:0.8;" x="872.689655" xlink:href="#md96faa8dab" y="178.877936"/>
      </g>
     </g>
     <g id="text_38">
      <!-- −2.5 -->
      <g transform="translate(841.406843 182.677155)scale(0.1 -0.1)">
       <use xlink:href="#DejaVuSans-8722"/>
       <use x="83.789062" xlink:href="#DejaVuSans-50"/>
       <use x="147.412109" xlink:href="#DejaVuSans-46"/>
       <use x="179.199219" xlink:href="#DejaVuSans-53"/>
      </g>
     </g>
    </g>
    <g id="ytick_19">
     <g id="line2d_42">
      <g>
       <use style="stroke:#000000;stroke-width:0.8;" x="872.689655" xlink:href="#md96faa8dab" y="153.371298"/>
      </g>
     </g>
     <g id="text_39">
      <!-- 0.0 -->
      <g transform="translate(849.78653 157.170517)scale(0.1 -0.1)">
       <use xlink:href="#DejaVuSans-48"/>
       <use x="63.623047" xlink:href="#DejaVuSans-46"/>
       <use x="95.410156" xlink:href="#DejaVuSans-48"/>
      </g>
     </g>
    </g>
    <g id="ytick_20">
     <g id="line2d_43">
      <g>
       <use style="stroke:#000000;stroke-width:0.8;" x="872.689655" xlink:href="#md96faa8dab" y="127.86466"/>
      </g>
     </g>
     <g id="text_40">
      <!-- 2.5 -->
      <g transform="translate(849.78653 131.663879)scale(0.1 -0.1)">
       <use xlink:href="#DejaVuSans-50"/>
       <use x="63.623047" xlink:href="#DejaVuSans-46"/>
       <use x="95.410156" xlink:href="#DejaVuSans-53"/>
      </g>
     </g>
    </g>
    <g id="ytick_21">
     <g id="line2d_44">
      <g>
       <use style="stroke:#000000;stroke-width:0.8;" x="872.689655" xlink:href="#md96faa8dab" y="102.358022"/>
      </g>
     </g>
     <g id="text_41">
      <!-- 5.0 -->
      <g transform="translate(849.78653 106.157241)scale(0.1 -0.1)">
       <use xlink:href="#DejaVuSans-53"/>
       <use x="63.623047" xlink:href="#DejaVuSans-46"/>
       <use x="95.410156" xlink:href="#DejaVuSans-48"/>
      </g>
     </g>
    </g>
    <g id="ytick_22">
     <g id="line2d_45">
      <g>
       <use style="stroke:#000000;stroke-width:0.8;" x="872.689655" xlink:href="#md96faa8dab" y="76.851384"/>
      </g>
     </g>
     <g id="text_42">
      <!-- 7.5 -->
      <defs>
       <path d="M 8.203125 72.90625 
L 55.078125 72.90625 
L 55.078125 68.703125 
L 28.609375 0 
L 18.3125 0 
L 43.21875 64.59375 
L 8.203125 64.59375 
z
" id="DejaVuSans-55"/>
      </defs>
      <g transform="translate(849.78653 80.650603)scale(0.1 -0.1)">
       <use xlink:href="#DejaVuSans-55"/>
       <use x="63.623047" xlink:href="#DejaVuSans-46"/>
       <use x="95.410156" xlink:href="#DejaVuSans-53"/>
      </g>
     </g>
    </g>
   </g>
   <g id="line2d_46">
    <path clip-path="url(#pb54d1ae3ec)" d="M 881.435737 153.371297 
L 883.202622 153.371296 
L 884.969508 153.371295 
L 886.736394 153.371294 
L 888.503279 153.371291 
L 890.270165 153.371287 
L 892.037051 153.37128 
L 893.80393 153.37127 
L 895.570816 153.371254 
L 897.337701 153.371227 
L 899.104587 153.371186 
L 900.871473 153.37112 
L 902.638358 153.371015 
L 904.405237 153.37085 
L 906.172123 153.370587 
L 907.939009 153.370171 
L 909.705894 153.369511 
L 911.47278 153.368466 
L 913.239666 153.36681 
L 915.006551 153.364188 
L 916.773434 153.360038 
L 918.54032 153.353469 
L 920.307205 153.343076 
L 922.074091 153.326638 
L 923.84098 153.30065 
L 925.607866 153.259581 
L 927.374751 153.194719 
L 929.141637 153.092354 
L 930.908519 152.93097 
L 932.675405 152.67691 
L 934.442291 152.277815 
L 936.209176 151.652926 
L 937.976059 150.67937 
L 939.742944 149.174259 
L 941.509829 146.875024 
L 943.276714 143.426731 
L 945.043598 138.397633 
L 946.810484 131.360222 
L 948.57737 122.076233 
L 950.344255 110.766147 
L 952.111139 98.305327 
L 953.878025 86.096241 
L 955.644909 75.561656 
L 957.411795 67.596169 
L 959.17868 62.376797 
L 960.945564 59.556709 
L 962.71245 58.578843 
L 964.479335 58.900527 
L 966.24622 60.089602 
L 968.013105 61.837307 
L 969.77999 63.936634 
L 971.546875 66.254021 
L 973.31376 68.70538 
L 975.080645 71.23853 
L 976.847531 73.8214 
L 978.614416 76.434414 
L 980.381309 79.065667 
L 982.148194 81.707909 
L 983.915078 84.356798 
L 985.681964 87.00967 
L 987.448848 89.664951 
L 989.215734 92.321677 
L 990.98262 94.979269 
L 992.749505 97.637371 
L 994.516389 100.295795 
L 996.283275 102.954389 
L 998.050159 105.613104 
L 999.817045 108.271888 
L 1001.58393 110.930706 
L 1003.350816 113.589545 
L 1005.117702 116.2484 
L 1006.884584 118.907259 
L 1008.65147 121.566125 
L 1010.418355 124.224994 
L 1012.185241 126.883868 
L 1013.952124 129.542739 
L 1015.719009 132.20161 
L 1017.485895 134.860484 
L 1019.252781 137.519359 
L 1021.019666 140.178234 
L 1022.786552 142.837107 
L 1024.553438 145.495982 
L 1026.320323 148.154857 
L 1028.087209 150.813731 
L 1029.854095 153.472605 
L 1031.62098 156.13148 
L 1033.387866 158.790354 
L 1035.154745 161.449219 
L 1036.921631 164.108093 
L 1038.688517 166.766968 
L 1040.455402 169.425842 
L 1042.222288 172.084717 
L 1043.989174 174.743592 
L 1045.756053 177.402456 
L 1047.522938 180.061329 
L 1049.289824 182.720205 
L 1051.05671 185.379079 
L 1052.823595 188.037953 
L 1054.590481 190.696829 
L 1056.357367 193.355702 
" style="fill:none;stroke:#1f77b4;stroke-linecap:square;stroke-width:1.5;"/>
   </g>
   <g id="patch_18">
    <path d="M 872.689655 200.094545 
L 872.689655 51.84 
" style="fill:none;stroke:#000000;stroke-linecap:square;stroke-linejoin:miter;stroke-width:0.8;"/>
   </g>
   <g id="patch_19">
    <path d="M 1065.103448 200.094545 
L 1065.103448 51.84 
" style="fill:none;stroke:#000000;stroke-linecap:square;stroke-linejoin:miter;stroke-width:0.8;"/>
   </g>
   <g id="patch_20">
    <path d="M 872.689655 200.094545 
L 1065.103448 200.094545 
" style="fill:none;stroke:#000000;stroke-linecap:square;stroke-linejoin:miter;stroke-width:0.8;"/>
   </g>
   <g id="patch_21">
    <path d="M 872.689655 51.84 
L 1065.103448 51.84 
" style="fill:none;stroke:#000000;stroke-linecap:square;stroke-linejoin:miter;stroke-width:0.8;"/>
   </g>
  </g>
  <g id="axes_5">
   <g id="patch_22">
    <path d="M 1103.586207 200.094545 
L 1296 200.094545 
L 1296 51.84 
L 1103.586207 51.84 
z
" style="fill:#ffffff;"/>
   </g>
   <g id="matplotlib.axis_9">
    <g id="xtick_21">
     <g id="line2d_47">
      <g>
       <use style="stroke:#000000;stroke-width:0.8;" x="1112.332288" xlink:href="#m3baf579d06" y="200.094545"/>
      </g>
     </g>
     <g id="text_43">
      <!-- −100 -->
      <g transform="translate(1098.598695 214.692983)scale(0.1 -0.1)">
       <use xlink:href="#DejaVuSans-8722"/>
       <use x="83.789062" xlink:href="#DejaVuSans-49"/>
       <use x="147.412109" xlink:href="#DejaVuSans-48"/>
       <use x="211.035156" xlink:href="#DejaVuSans-48"/>
      </g>
     </g>
    </g>
    <g id="xtick_22">
     <g id="line2d_48">
      <g>
       <use style="stroke:#000000;stroke-width:0.8;" x="1156.062696" xlink:href="#m3baf579d06" y="200.094545"/>
      </g>
     </g>
     <g id="text_44">
      <!-- −50 -->
      <g transform="translate(1145.510352 214.692983)scale(0.1 -0.1)">
       <use xlink:href="#DejaVuSans-8722"/>
       <use x="83.789062" xlink:href="#DejaVuSans-53"/>
       <use x="147.412109" xlink:href="#DejaVuSans-48"/>
      </g>
     </g>
    </g>
    <g id="xtick_23">
     <g id="line2d_49">
      <g>
       <use style="stroke:#000000;stroke-width:0.8;" x="1199.793103" xlink:href="#m3baf579d06" y="200.094545"/>
      </g>
     </g>
     <g id="text_45">
      <!-- 0 -->
      <g transform="translate(1196.611853 214.692983)scale(0.1 -0.1)">
       <use xlink:href="#DejaVuSans-48"/>
      </g>
     </g>
    </g>
    <g id="xtick_24">
     <g id="line2d_50">
      <g>
       <use style="stroke:#000000;stroke-width:0.8;" x="1243.523511" xlink:href="#m3baf579d06" y="200.094545"/>
      </g>
     </g>
     <g id="text_46">
      <!-- 50 -->
      <g transform="translate(1237.161011 214.692983)scale(0.1 -0.1)">
       <use xlink:href="#DejaVuSans-53"/>
       <use x="63.623047" xlink:href="#DejaVuSans-48"/>
      </g>
     </g>
    </g>
    <g id="xtick_25">
     <g id="line2d_51">
      <g>
       <use style="stroke:#000000;stroke-width:0.8;" x="1287.253918" xlink:href="#m3baf579d06" y="200.094545"/>
      </g>
     </g>
     <g id="text_47">
      <!-- 100 -->
      <g transform="translate(1277.710168 214.692983)scale(0.1 -0.1)">
       <use xlink:href="#DejaVuSans-49"/>
       <use x="63.623047" xlink:href="#DejaVuSans-48"/>
       <use x="127.246094" xlink:href="#DejaVuSans-48"/>
      </g>
     </g>
    </g>
   </g>
   <g id="matplotlib.axis_10">
    <g id="ytick_23">
     <g id="line2d_52">
      <g>
       <use style="stroke:#000000;stroke-width:0.8;" x="1103.586207" xlink:href="#md96faa8dab" y="190.338898"/>
      </g>
     </g>
     <g id="text_48">
      <!-- −5 -->
      <g transform="translate(1081.844019 194.138117)scale(0.1 -0.1)">
       <use xlink:href="#DejaVuSans-8722"/>
       <use x="83.789062" xlink:href="#DejaVuSans-53"/>
      </g>
     </g>
    </g>
    <g id="ytick_24">
     <g id="line2d_53">
      <g>
       <use style="stroke:#000000;stroke-width:0.8;" x="1103.586207" xlink:href="#md96faa8dab" y="163.986885"/>
      </g>
     </g>
     <g id="text_49">
      <!-- −4 -->
      <g transform="translate(1081.844019 167.786104)scale(0.1 -0.1)">
       <use xlink:href="#DejaVuSans-8722"/>
       <use x="83.789062" xlink:href="#DejaVuSans-52"/>
      </g>
     </g>
    </g>
    <g id="ytick_25">
     <g id="line2d_54">
      <g>
       <use style="stroke:#000000;stroke-width:0.8;" x="1103.586207" xlink:href="#md96faa8dab" y="137.634871"/>
      </g>
     </g>
     <g id="text_50">
      <!-- −3 -->
      <g transform="translate(1081.844019 141.43409)scale(0.1 -0.1)">
       <use xlink:href="#DejaVuSans-8722"/>
       <use x="83.789062" xlink:href="#DejaVuSans-51"/>
      </g>
     </g>
    </g>
    <g id="ytick_26">
     <g id="line2d_55">
      <g>
       <use style="stroke:#000000;stroke-width:0.8;" x="1103.586207" xlink:href="#md96faa8dab" y="111.282858"/>
      </g>
     </g>
     <g id="text_51">
      <!-- −2 -->
      <g transform="translate(1081.844019 115.082077)scale(0.1 -0.1)">
       <use xlink:href="#DejaVuSans-8722"/>
       <use x="83.789062" xlink:href="#DejaVuSans-50"/>
      </g>
     </g>
    </g>
    <g id="ytick_27">
     <g id="line2d_56">
      <g>
       <use style="stroke:#000000;stroke-width:0.8;" x="1103.586207" xlink:href="#md96faa8dab" y="84.930845"/>
      </g>
     </g>
     <g id="text_52">
      <!-- −1 -->
      <g transform="translate(1081.844019 88.730063)scale(0.1 -0.1)">
       <use xlink:href="#DejaVuSans-8722"/>
       <use x="83.789062" xlink:href="#DejaVuSans-49"/>
      </g>
     </g>
    </g>
    <g id="ytick_28">
     <g id="line2d_57">
      <g>
       <use style="stroke:#000000;stroke-width:0.8;" x="1103.586207" xlink:href="#md96faa8dab" y="58.578831"/>
      </g>
     </g>
     <g id="text_53">
      <!-- 0 -->
      <g transform="translate(1090.223707 62.37805)scale(0.1 -0.1)">
       <use xlink:href="#DejaVuSans-48"/>
      </g>
     </g>
    </g>
   </g>
   <g id="line2d_58">
    <path clip-path="url(#pbb51d1e5bc)" d="M 1112.332288 58.578843 
L 1114.099174 58.578847 
L 1115.86606 58.578851 
L 1117.632945 58.578858 
L 1119.399831 58.578866 
L 1121.166717 58.578876 
L 1122.933603 58.57889 
L 1124.700482 58.578908 
L 1126.467367 58.578932 
L 1128.234253 58.578963 
L 1130.001139 58.579003 
L 1131.768024 58.579055 
L 1133.53491 58.579124 
L 1135.301789 58.579213 
L 1137.068675 58.57933 
L 1138.83556 58.579483 
L 1140.602446 58.579682 
L 1142.369332 58.579942 
L 1144.136218 58.580281 
L 1145.903103 58.580724 
L 1147.669986 58.581303 
L 1149.436871 58.582058 
L 1151.203757 58.583044 
L 1152.970643 58.584332 
L 1154.737532 58.586013 
L 1156.504417 58.588208 
L 1158.271303 58.591073 
L 1160.038189 58.594814 
L 1161.805071 58.599697 
L 1163.571957 58.606073 
L 1165.338842 58.614396 
L 1167.105728 58.625261 
L 1168.872611 58.639444 
L 1170.639496 58.657956 
L 1172.40638 58.682119 
L 1174.173266 58.713653 
L 1175.94015 58.754801 
L 1177.707036 58.808487 
L 1179.473921 58.878515 
L 1181.240807 58.969834 
L 1183.007691 59.088875 
L 1184.774577 59.243978 
L 1186.541461 59.445942 
L 1188.308346 59.708714 
L 1190.075231 60.050242 
L 1191.842116 60.493525 
L 1193.609002 61.06786 
L 1195.375887 61.810284 
L 1197.142772 62.767144 
L 1198.909657 63.995673 
L 1200.676542 65.565278 
L 1202.443427 67.558131 
L 1204.210312 70.068328 
L 1205.977197 73.198711 
L 1207.744082 77.05418 
L 1209.510967 81.730493 
L 1211.27786 87.298191 
L 1213.044745 93.782569 
L 1214.81163 101.143462 
L 1216.578516 109.260126 
L 1218.3454 117.928431 
L 1220.112286 126.875353 
L 1221.879171 135.790465 
L 1223.646057 144.367712 
L 1225.412941 152.345869 
L 1227.179827 159.537072 
L 1228.946711 165.837524 
L 1230.713596 171.221741 
L 1232.480482 175.725862 
L 1234.247368 179.42699 
L 1236.014253 182.423865 
L 1237.781136 184.821724 
L 1239.548022 186.722061 
L 1241.314907 188.216716 
L 1243.081793 189.385319 
L 1244.848675 190.294718 
L 1246.615561 190.99985 
L 1248.382447 191.54506 
L 1250.149332 191.965719 
L 1251.916218 192.289698 
L 1253.683104 192.538912 
L 1255.449989 192.730425 
L 1257.216875 192.87748 
L 1258.983761 192.990319 
L 1260.750646 193.076897 
L 1262.517532 193.143256 
L 1264.284418 193.194146 
L 1266.051297 193.23315 
L 1267.818183 193.263031 
L 1269.585068 193.285926 
L 1271.351954 193.303467 
L 1273.11884 193.316925 
L 1274.885725 193.327216 
L 1276.652604 193.335107 
L 1278.41949 193.341151 
L 1280.186376 193.345788 
L 1281.953261 193.349332 
L 1283.720147 193.352033 
L 1285.487033 193.354119 
L 1287.253918 193.355702 
" style="fill:none;stroke:#1f77b4;stroke-linecap:square;stroke-width:1.5;"/>
   </g>
   <g id="patch_23">
    <path d="M 1103.586207 200.094545 
L 1103.586207 51.84 
" style="fill:none;stroke:#000000;stroke-linecap:square;stroke-linejoin:miter;stroke-width:0.8;"/>
   </g>
   <g id="patch_24">
    <path d="M 1296 200.094545 
L 1296 51.84 
" style="fill:none;stroke:#000000;stroke-linecap:square;stroke-linejoin:miter;stroke-width:0.8;"/>
   </g>
   <g id="patch_25">
    <path d="M 1103.586207 200.094545 
L 1296 200.094545 
" style="fill:none;stroke:#000000;stroke-linecap:square;stroke-linejoin:miter;stroke-width:0.8;"/>
   </g>
   <g id="patch_26">
    <path d="M 1103.586207 51.84 
L 1296 51.84 
" style="fill:none;stroke:#000000;stroke-linecap:square;stroke-linejoin:miter;stroke-width:0.8;"/>
   </g>
  </g>
  <g id="axes_6">
   <g id="patch_27">
    <path d="M 180 378 
L 372.413793 378 
L 372.413793 229.745455 
L 180 229.745455 
z
" style="fill:#ffffff;"/>
   </g>
   <g id="matplotlib.axis_11">
    <g id="xtick_26">
     <g id="line2d_59">
      <g>
       <use style="stroke:#000000;stroke-width:0.8;" x="188.746082" xlink:href="#m3baf579d06" y="378"/>
      </g>
     </g>
     <g id="text_54">
      <!-- −100 -->
      <g transform="translate(175.012488 392.598437)scale(0.1 -0.1)">
       <use xlink:href="#DejaVuSans-8722"/>
       <use x="83.789062" xlink:href="#DejaVuSans-49"/>
       <use x="147.412109" xlink:href="#DejaVuSans-48"/>
       <use x="211.035156" xlink:href="#DejaVuSans-48"/>
      </g>
     </g>
    </g>
    <g id="xtick_27">
     <g id="line2d_60">
      <g>
       <use style="stroke:#000000;stroke-width:0.8;" x="232.476489" xlink:href="#m3baf579d06" y="378"/>
      </g>
     </g>
     <g id="text_55">
      <!-- −50 -->
      <g transform="translate(221.924145 392.598437)scale(0.1 -0.1)">
       <use xlink:href="#DejaVuSans-8722"/>
       <use x="83.789062" xlink:href="#DejaVuSans-53"/>
       <use x="147.412109" xlink:href="#DejaVuSans-48"/>
      </g>
     </g>
    </g>
    <g id="xtick_28">
     <g id="line2d_61">
      <g>
       <use style="stroke:#000000;stroke-width:0.8;" x="276.206897" xlink:href="#m3baf579d06" y="378"/>
      </g>
     </g>
     <g id="text_56">
      <!-- 0 -->
      <g transform="translate(273.025647 392.598437)scale(0.1 -0.1)">
       <use xlink:href="#DejaVuSans-48"/>
      </g>
     </g>
    </g>
    <g id="xtick_29">
     <g id="line2d_62">
      <g>
       <use style="stroke:#000000;stroke-width:0.8;" x="319.937304" xlink:href="#m3baf579d06" y="378"/>
      </g>
     </g>
     <g id="text_57">
      <!-- 50 -->
      <g transform="translate(313.574804 392.598437)scale(0.1 -0.1)">
       <use xlink:href="#DejaVuSans-53"/>
       <use x="63.623047" xlink:href="#DejaVuSans-48"/>
      </g>
     </g>
    </g>
    <g id="xtick_30">
     <g id="line2d_63">
      <g>
       <use style="stroke:#000000;stroke-width:0.8;" x="363.667712" xlink:href="#m3baf579d06" y="378"/>
      </g>
     </g>
     <g id="text_58">
      <!-- 100 -->
      <g transform="translate(354.123962 392.598437)scale(0.1 -0.1)">
       <use xlink:href="#DejaVuSans-49"/>
       <use x="63.623047" xlink:href="#DejaVuSans-48"/>
       <use x="127.246094" xlink:href="#DejaVuSans-48"/>
      </g>
     </g>
    </g>
   </g>
   <g id="matplotlib.axis_12">
    <g id="ytick_29">
     <g id="line2d_64">
      <g>
       <use style="stroke:#000000;stroke-width:0.8;" x="180" xlink:href="#md96faa8dab" y="358.956489"/>
      </g>
     </g>
     <g id="text_59">
      <!-- 0.4 -->
      <g transform="translate(157.096875 362.755708)scale(0.1 -0.1)">
       <use xlink:href="#DejaVuSans-48"/>
       <use x="63.623047" xlink:href="#DejaVuSans-46"/>
       <use x="95.410156" xlink:href="#DejaVuSans-52"/>
      </g>
     </g>
    </g>
    <g id="ytick_30">
     <g id="line2d_65">
      <g>
       <use style="stroke:#000000;stroke-width:0.8;" x="180" xlink:href="#md96faa8dab" y="328.663965"/>
      </g>
     </g>
     <g id="text_60">
      <!-- 0.5 -->
      <g transform="translate(157.096875 332.463184)scale(0.1 -0.1)">
       <use xlink:href="#DejaVuSans-48"/>
       <use x="63.623047" xlink:href="#DejaVuSans-46"/>
       <use x="95.410156" xlink:href="#DejaVuSans-53"/>
      </g>
     </g>
    </g>
    <g id="ytick_31">
     <g id="line2d_66">
      <g>
       <use style="stroke:#000000;stroke-width:0.8;" x="180" xlink:href="#md96faa8dab" y="298.37144"/>
      </g>
     </g>
     <g id="text_61">
      <!-- 0.6 -->
      <defs>
       <path d="M 33.015625 40.375 
Q 26.375 40.375 22.484375 35.828125 
Q 18.609375 31.296875 18.609375 23.390625 
Q 18.609375 15.53125 22.484375 10.953125 
Q 26.375 6.390625 33.015625 6.390625 
Q 39.65625 6.390625 43.53125 10.953125 
Q 47.40625 15.53125 47.40625 23.390625 
Q 47.40625 31.296875 43.53125 35.828125 
Q 39.65625 40.375 33.015625 40.375 
z
M 52.59375 71.296875 
L 52.59375 62.3125 
Q 48.875 64.0625 45.09375 64.984375 
Q 41.3125 65.921875 37.59375 65.921875 
Q 27.828125 65.921875 22.671875 59.328125 
Q 17.53125 52.734375 16.796875 39.40625 
Q 19.671875 43.65625 24.015625 45.921875 
Q 28.375 48.1875 33.59375 48.1875 
Q 44.578125 48.1875 50.953125 41.515625 
Q 57.328125 34.859375 57.328125 23.390625 
Q 57.328125 12.15625 50.6875 5.359375 
Q 44.046875 -1.421875 33.015625 -1.421875 
Q 20.359375 -1.421875 13.671875 8.265625 
Q 6.984375 17.96875 6.984375 36.375 
Q 6.984375 53.65625 15.1875 63.9375 
Q 23.390625 74.21875 37.203125 74.21875 
Q 40.921875 74.21875 44.703125 73.484375 
Q 48.484375 72.75 52.59375 71.296875 
z
" id="DejaVuSans-54"/>
      </defs>
      <g transform="translate(157.096875 302.170659)scale(0.1 -0.1)">
       <use xlink:href="#DejaVuSans-48"/>
       <use x="63.623047" xlink:href="#DejaVuSans-46"/>
       <use x="95.410156" xlink:href="#DejaVuSans-54"/>
      </g>
     </g>
    </g>
    <g id="ytick_32">
     <g id="line2d_67">
      <g>
       <use style="stroke:#000000;stroke-width:0.8;" x="180" xlink:href="#md96faa8dab" y="268.078916"/>
      </g>
     </g>
     <g id="text_62">
      <!-- 0.7 -->
      <g transform="translate(157.096875 271.878135)scale(0.1 -0.1)">
       <use xlink:href="#DejaVuSans-48"/>
       <use x="63.623047" xlink:href="#DejaVuSans-46"/>
       <use x="95.410156" xlink:href="#DejaVuSans-55"/>
      </g>
     </g>
    </g>
    <g id="ytick_33">
     <g id="line2d_68">
      <g>
       <use style="stroke:#000000;stroke-width:0.8;" x="180" xlink:href="#md96faa8dab" y="237.786392"/>
      </g>
     </g>
     <g id="text_63">
      <!-- 0.8 -->
      <defs>
       <path d="M 31.78125 34.625 
Q 24.75 34.625 20.71875 30.859375 
Q 16.703125 27.09375 16.703125 20.515625 
Q 16.703125 13.921875 20.71875 10.15625 
Q 24.75 6.390625 31.78125 6.390625 
Q 38.8125 6.390625 42.859375 10.171875 
Q 46.921875 13.96875 46.921875 20.515625 
Q 46.921875 27.09375 42.890625 30.859375 
Q 38.875 34.625 31.78125 34.625 
z
M 21.921875 38.8125 
Q 15.578125 40.375 12.03125 44.71875 
Q 8.5 49.078125 8.5 55.328125 
Q 8.5 64.0625 14.71875 69.140625 
Q 20.953125 74.21875 31.78125 74.21875 
Q 42.671875 74.21875 48.875 69.140625 
Q 55.078125 64.0625 55.078125 55.328125 
Q 55.078125 49.078125 51.53125 44.71875 
Q 48 40.375 41.703125 38.8125 
Q 48.828125 37.15625 52.796875 32.3125 
Q 56.78125 27.484375 56.78125 20.515625 
Q 56.78125 9.90625 50.3125 4.234375 
Q 43.84375 -1.421875 31.78125 -1.421875 
Q 19.734375 -1.421875 13.25 4.234375 
Q 6.78125 9.90625 6.78125 20.515625 
Q 6.78125 27.484375 10.78125 32.3125 
Q 14.796875 37.15625 21.921875 38.8125 
z
M 18.3125 54.390625 
Q 18.3125 48.734375 21.84375 45.5625 
Q 25.390625 42.390625 31.78125 42.390625 
Q 38.140625 42.390625 41.71875 45.5625 
Q 45.3125 48.734375 45.3125 54.390625 
Q 45.3125 60.0625 41.71875 63.234375 
Q 38.140625 66.40625 31.78125 66.40625 
Q 25.390625 66.40625 21.84375 63.234375 
Q 18.3125 60.0625 18.3125 54.390625 
z
" id="DejaVuSans-56"/>
      </defs>
      <g transform="translate(157.096875 241.58561)scale(0.1 -0.1)">
       <use xlink:href="#DejaVuSans-48"/>
       <use x="63.623047" xlink:href="#DejaVuSans-46"/>
       <use x="95.410156" xlink:href="#DejaVuSans-56"/>
      </g>
     </g>
    </g>
   </g>
   <g id="line2d_69">
    <path clip-path="url(#p0daf55476a)" d="M 188.746082 328.663965 
L 190.512967 328.663947 
L 192.279853 328.663965 
L 194.046739 328.663947 
L 195.813624 328.663947 
L 197.58051 328.663947 
L 199.347396 328.663929 
L 201.114275 328.663893 
L 202.88116 328.663856 
L 204.648046 328.663766 
L 206.414932 328.66364 
L 208.181817 328.663459 
L 209.948703 328.663134 
L 211.715582 328.662611 
L 213.482468 328.661798 
L 215.249354 328.660462 
L 217.016239 328.658313 
L 218.783125 328.654937 
L 220.550011 328.649538 
L 222.316896 328.640944 
L 224.083779 328.627257 
L 225.850664 328.605554 
L 227.61755 328.571122 
L 229.384436 328.516558 
L 231.151325 328.430161 
L 232.91821 328.293497 
L 234.685096 328.07764 
L 236.451982 327.737145 
L 238.218864 327.20116 
L 239.98575 326.359852 
L 241.752636 325.044924 
L 243.519521 323.002999 
L 245.286404 319.864043 
L 247.053289 315.114459 
L 248.820173 308.105343 
L 250.587059 298.162673 
L 252.353943 284.913543 
L 254.120829 268.930447 
L 255.887714 252.549204 
L 257.6546 240.109929 
L 259.421484 236.484298 
L 261.18837 244.032342 
L 262.955254 260.643868 
L 264.72214 281.18364 
L 266.489024 300.771187 
L 268.255909 316.750076 
L 270.022795 328.587553 
L 271.78968 336.903229 
L 273.556565 342.651602 
L 275.32345 346.711284 
L 277.090335 349.75877 
L 278.85722 352.271734 
L 280.624105 354.569463 
L 282.39099 356.851295 
L 284.157875 359.221284 
L 285.92476 361.699598 
L 287.691654 364.225679 
L 289.458538 366.661427 
L 291.225423 368.803715 
L 292.992309 370.413322 
L 294.759193 371.261157 
L 296.526079 371.181811 
L 298.292964 370.116576 
L 300.05985 368.128322 
L 301.826734 365.382123 
L 303.59362 362.101212 
L 305.360504 358.517326 
L 307.127389 354.832915 
L 308.894275 351.203591 
L 310.661161 347.739289 
L 312.428047 344.517375 
L 314.194929 341.599683 
L 315.961815 339.047358 
L 317.7287 336.9294 
L 319.495586 335.322691 
L 321.262468 334.303652 
L 323.029354 333.933139 
L 324.79624 334.239057 
L 326.563125 335.202404 
L 328.330011 336.751587 
L 330.096897 338.768324 
L 331.863782 341.10361 
L 333.630668 343.599078 
L 335.397554 346.10778 
L 337.16444 348.509583 
L 338.931325 350.718722 
L 340.698211 352.684226 
L 342.46509 354.385186 
L 344.231976 355.82358 
L 345.998861 357.016686 
L 347.765747 357.990496 
L 349.532633 358.77463 
L 351.299518 359.398862 
L 353.066397 359.89099 
L 354.833283 360.275758 
L 356.600169 360.574373 
L 358.367055 360.80462 
L 360.13394 360.981088 
L 361.900826 361.115576 
L 363.667712 361.217501 
" style="fill:none;stroke:#1f77b4;stroke-linecap:square;stroke-width:1.5;"/>
   </g>
   <g id="patch_28">
    <path d="M 180 378 
L 180 229.745455 
" style="fill:none;stroke:#000000;stroke-linecap:square;stroke-linejoin:miter;stroke-width:0.8;"/>
   </g>
   <g id="patch_29">
    <path d="M 372.413793 378 
L 372.413793 229.745455 
" style="fill:none;stroke:#000000;stroke-linecap:square;stroke-linejoin:miter;stroke-width:0.8;"/>
   </g>
   <g id="patch_30">
    <path d="M 180 378 
L 372.413793 378 
" style="fill:none;stroke:#000000;stroke-linecap:square;stroke-linejoin:miter;stroke-width:0.8;"/>
   </g>
   <g id="patch_31">
    <path d="M 180 229.745455 
L 372.413793 229.745455 
" style="fill:none;stroke:#000000;stroke-linecap:square;stroke-linejoin:miter;stroke-width:0.8;"/>
   </g>
  </g>
  <g id="axes_7">
   <g id="patch_32">
    <path d="M 410.896552 378 
L 603.310345 378 
L 603.310345 229.745455 
L 410.896552 229.745455 
z
" style="fill:#ffffff;"/>
   </g>
   <g id="matplotlib.axis_13">
    <g id="xtick_31">
     <g id="line2d_70">
      <g>
       <use style="stroke:#000000;stroke-width:0.8;" x="419.642633" xlink:href="#m3baf579d06" y="378"/>
      </g>
     </g>
     <g id="text_64">
      <!-- −100 -->
      <g transform="translate(405.909039 392.598437)scale(0.1 -0.1)">
       <use xlink:href="#DejaVuSans-8722"/>
       <use x="83.789062" xlink:href="#DejaVuSans-49"/>
       <use x="147.412109" xlink:href="#DejaVuSans-48"/>
       <use x="211.035156" xlink:href="#DejaVuSans-48"/>
      </g>
     </g>
    </g>
    <g id="xtick_32">
     <g id="line2d_71">
      <g>
       <use style="stroke:#000000;stroke-width:0.8;" x="463.373041" xlink:href="#m3baf579d06" y="378"/>
      </g>
     </g>
     <g id="text_65">
      <!-- −50 -->
      <g transform="translate(452.820697 392.598437)scale(0.1 -0.1)">
       <use xlink:href="#DejaVuSans-8722"/>
       <use x="83.789062" xlink:href="#DejaVuSans-53"/>
       <use x="147.412109" xlink:href="#DejaVuSans-48"/>
      </g>
     </g>
    </g>
    <g id="xtick_33">
     <g id="line2d_72">
      <g>
       <use style="stroke:#000000;stroke-width:0.8;" x="507.103448" xlink:href="#m3baf579d06" y="378"/>
      </g>
     </g>
     <g id="text_66">
      <!-- 0 -->
      <g transform="translate(503.922198 392.598437)scale(0.1 -0.1)">
       <use xlink:href="#DejaVuSans-48"/>
      </g>
     </g>
    </g>
    <g id="xtick_34">
     <g id="line2d_73">
      <g>
       <use style="stroke:#000000;stroke-width:0.8;" x="550.833856" xlink:href="#m3baf579d06" y="378"/>
      </g>
     </g>
     <g id="text_67">
      <!-- 50 -->
      <g transform="translate(544.471356 392.598437)scale(0.1 -0.1)">
       <use xlink:href="#DejaVuSans-53"/>
       <use x="63.623047" xlink:href="#DejaVuSans-48"/>
      </g>
     </g>
    </g>
    <g id="xtick_35">
     <g id="line2d_74">
      <g>
       <use style="stroke:#000000;stroke-width:0.8;" x="594.564263" xlink:href="#m3baf579d06" y="378"/>
      </g>
     </g>
     <g id="text_68">
      <!-- 100 -->
      <g transform="translate(585.020513 392.598437)scale(0.1 -0.1)">
       <use xlink:href="#DejaVuSans-49"/>
       <use x="63.623047" xlink:href="#DejaVuSans-48"/>
       <use x="127.246094" xlink:href="#DejaVuSans-48"/>
      </g>
     </g>
    </g>
   </g>
   <g id="matplotlib.axis_14">
    <g id="ytick_34">
     <g id="line2d_75">
      <g>
       <use style="stroke:#000000;stroke-width:0.8;" x="410.896552" xlink:href="#md96faa8dab" y="358.956485"/>
      </g>
     </g>
     <g id="text_69">
      <!-- −0.1 -->
      <g transform="translate(379.613739 362.755704)scale(0.1 -0.1)">
       <use xlink:href="#DejaVuSans-8722"/>
       <use x="83.789062" xlink:href="#DejaVuSans-48"/>
       <use x="147.412109" xlink:href="#DejaVuSans-46"/>
       <use x="179.199219" xlink:href="#DejaVuSans-49"/>
      </g>
     </g>
    </g>
    <g id="ytick_35">
     <g id="line2d_76">
      <g>
       <use style="stroke:#000000;stroke-width:0.8;" x="410.896552" xlink:href="#md96faa8dab" y="328.663962"/>
      </g>
     </g>
     <g id="text_70">
      <!-- 0.0 -->
      <g transform="translate(387.993427 332.46318)scale(0.1 -0.1)">
       <use xlink:href="#DejaVuSans-48"/>
       <use x="63.623047" xlink:href="#DejaVuSans-46"/>
       <use x="95.410156" xlink:href="#DejaVuSans-48"/>
      </g>
     </g>
    </g>
    <g id="ytick_36">
     <g id="line2d_77">
      <g>
       <use style="stroke:#000000;stroke-width:0.8;" x="410.896552" xlink:href="#md96faa8dab" y="298.371438"/>
      </g>
     </g>
     <g id="text_71">
      <!-- 0.1 -->
      <g transform="translate(387.993427 302.170657)scale(0.1 -0.1)">
       <use xlink:href="#DejaVuSans-48"/>
       <use x="63.623047" xlink:href="#DejaVuSans-46"/>
       <use x="95.410156" xlink:href="#DejaVuSans-49"/>
      </g>
     </g>
    </g>
    <g id="ytick_37">
     <g id="line2d_78">
      <g>
       <use style="stroke:#000000;stroke-width:0.8;" x="410.896552" xlink:href="#md96faa8dab" y="268.078915"/>
      </g>
     </g>
     <g id="text_72">
      <!-- 0.2 -->
      <g transform="translate(387.993427 271.878134)scale(0.1 -0.1)">
       <use xlink:href="#DejaVuSans-48"/>
       <use x="63.623047" xlink:href="#DejaVuSans-46"/>
       <use x="95.410156" xlink:href="#DejaVuSans-50"/>
      </g>
     </g>
    </g>
    <g id="ytick_38">
     <g id="line2d_79">
      <g>
       <use style="stroke:#000000;stroke-width:0.8;" x="410.896552" xlink:href="#md96faa8dab" y="237.786392"/>
      </g>
     </g>
     <g id="text_73">
      <!-- 0.3 -->
      <g transform="translate(387.993427 241.58561)scale(0.1 -0.1)">
       <use xlink:href="#DejaVuSans-48"/>
       <use x="63.623047" xlink:href="#DejaVuSans-46"/>
       <use x="95.410156" xlink:href="#DejaVuSans-51"/>
      </g>
     </g>
    </g>
   </g>
   <g id="line2d_80">
    <path clip-path="url(#pdea59cd798)" d="M 419.642633 328.66396 
L 421.409519 328.663958 
L 423.176405 328.663956 
L 424.94329 328.663953 
L 426.710176 328.663947 
L 428.477062 328.663936 
L 430.243947 328.66392 
L 432.010826 328.663892 
L 433.777712 328.663845 
L 435.544598 328.66377 
L 437.311483 328.663648 
L 439.078369 328.663449 
L 440.845255 328.663128 
L 442.612134 328.662612 
L 444.37902 328.661782 
L 446.145905 328.660454 
L 447.912791 328.658329 
L 449.679677 328.654939 
L 451.446562 328.649535 
L 453.213448 328.640935 
L 454.98033 328.627264 
L 456.747216 328.605557 
L 458.514102 328.571122 
L 460.280987 328.51655 
L 462.047876 328.430149 
L 463.814762 328.293498 
L 465.581648 328.077632 
L 467.348534 327.737141 
L 469.115416 327.20116 
L 470.882302 326.35986 
L 472.649187 325.044923 
L 474.416073 323.003005 
L 476.182955 319.864034 
L 477.949841 315.114449 
L 479.716725 308.105347 
L 481.483611 298.162675 
L 483.250495 284.913541 
L 485.01738 268.930428 
L 486.784266 252.549221 
L 488.551152 240.109919 
L 490.318036 236.484298 
L 492.084922 244.032342 
L 493.851806 260.643863 
L 495.618691 281.183629 
L 497.385576 300.771183 
L 499.152461 316.750073 
L 500.919347 328.587561 
L 502.686232 336.903221 
L 504.453116 342.651594 
L 506.220001 346.711277 
L 507.986887 349.758766 
L 509.753772 352.271734 
L 511.520657 354.569466 
L 513.287542 356.851289 
L 515.054427 359.221278 
L 516.821312 361.69959 
L 518.588205 364.225673 
L 520.35509 366.661427 
L 522.121975 368.803706 
L 523.888861 370.413318 
L 525.655745 371.261157 
L 527.42263 371.181807 
L 529.189516 370.116562 
L 530.956402 368.128317 
L 532.723286 365.382121 
L 534.490171 362.101208 
L 536.257056 358.517331 
L 538.023941 354.832911 
L 539.790827 351.203585 
L 541.557713 347.739285 
L 543.324598 344.517369 
L 545.091481 341.599677 
L 546.858366 339.047357 
L 548.625252 336.929388 
L 550.392138 335.322691 
L 552.15902 334.303651 
L 553.925906 333.933131 
L 555.692791 334.239063 
L 557.459677 335.202403 
L 559.226563 336.751579 
L 560.993449 338.768319 
L 562.760334 341.103606 
L 564.52722 343.599068 
L 566.294106 346.107773 
L 568.060991 348.509575 
L 569.827877 350.718718 
L 571.594763 352.684222 
L 573.361642 354.385178 
L 575.128527 355.823576 
L 576.895413 357.016679 
L 578.662299 357.990489 
L 580.429184 358.774619 
L 582.19607 359.398851 
L 583.962949 359.890986 
L 585.729835 360.275747 
L 587.496721 360.574367 
L 589.263606 360.804616 
L 591.030492 360.981081 
L 592.797378 361.115567 
L 594.564263 361.217494 
" style="fill:none;stroke:#1f77b4;stroke-linecap:square;stroke-width:1.5;"/>
   </g>
   <g id="patch_33">
    <path d="M 410.896552 378 
L 410.896552 229.745455 
" style="fill:none;stroke:#000000;stroke-linecap:square;stroke-linejoin:miter;stroke-width:0.8;"/>
   </g>
   <g id="patch_34">
    <path d="M 603.310345 378 
L 603.310345 229.745455 
" style="fill:none;stroke:#000000;stroke-linecap:square;stroke-linejoin:miter;stroke-width:0.8;"/>
   </g>
   <g id="patch_35">
    <path d="M 410.896552 378 
L 603.310345 378 
" style="fill:none;stroke:#000000;stroke-linecap:square;stroke-linejoin:miter;stroke-width:0.8;"/>
   </g>
   <g id="patch_36">
    <path d="M 410.896552 229.745455 
L 603.310345 229.745455 
" style="fill:none;stroke:#000000;stroke-linecap:square;stroke-linejoin:miter;stroke-width:0.8;"/>
   </g>
  </g>
  <g id="axes_8">
   <g id="patch_37">
    <path d="M 641.793103 378 
L 834.206897 378 
L 834.206897 229.745455 
L 641.793103 229.745455 
z
" style="fill:#ffffff;"/>
   </g>
   <g id="matplotlib.axis_15">
    <g id="xtick_36">
     <g id="line2d_81">
      <g>
       <use style="stroke:#000000;stroke-width:0.8;" x="650.539185" xlink:href="#m3baf579d06" y="378"/>
      </g>
     </g>
     <g id="text_74">
      <!-- −100 -->
      <g transform="translate(636.805591 392.598437)scale(0.1 -0.1)">
       <use xlink:href="#DejaVuSans-8722"/>
       <use x="83.789062" xlink:href="#DejaVuSans-49"/>
       <use x="147.412109" xlink:href="#DejaVuSans-48"/>
       <use x="211.035156" xlink:href="#DejaVuSans-48"/>
      </g>
     </g>
    </g>
    <g id="xtick_37">
     <g id="line2d_82">
      <g>
       <use style="stroke:#000000;stroke-width:0.8;" x="694.269592" xlink:href="#m3baf579d06" y="378"/>
      </g>
     </g>
     <g id="text_75">
      <!-- −50 -->
      <g transform="translate(683.717249 392.598437)scale(0.1 -0.1)">
       <use xlink:href="#DejaVuSans-8722"/>
       <use x="83.789062" xlink:href="#DejaVuSans-53"/>
       <use x="147.412109" xlink:href="#DejaVuSans-48"/>
      </g>
     </g>
    </g>
    <g id="xtick_38">
     <g id="line2d_83">
      <g>
       <use style="stroke:#000000;stroke-width:0.8;" x="738" xlink:href="#m3baf579d06" y="378"/>
      </g>
     </g>
     <g id="text_76">
      <!-- 0 -->
      <g transform="translate(734.81875 392.598437)scale(0.1 -0.1)">
       <use xlink:href="#DejaVuSans-48"/>
      </g>
     </g>
    </g>
    <g id="xtick_39">
     <g id="line2d_84">
      <g>
       <use style="stroke:#000000;stroke-width:0.8;" x="781.730408" xlink:href="#m3baf579d06" y="378"/>
      </g>
     </g>
     <g id="text_77">
      <!-- 50 -->
      <g transform="translate(775.367908 392.598437)scale(0.1 -0.1)">
       <use xlink:href="#DejaVuSans-53"/>
       <use x="63.623047" xlink:href="#DejaVuSans-48"/>
      </g>
     </g>
    </g>
    <g id="xtick_40">
     <g id="line2d_85">
      <g>
       <use style="stroke:#000000;stroke-width:0.8;" x="825.460815" xlink:href="#m3baf579d06" y="378"/>
      </g>
     </g>
     <g id="text_78">
      <!-- 100 -->
      <g transform="translate(815.917065 392.598437)scale(0.1 -0.1)">
       <use xlink:href="#DejaVuSans-49"/>
       <use x="63.623047" xlink:href="#DejaVuSans-48"/>
       <use x="127.246094" xlink:href="#DejaVuSans-48"/>
      </g>
     </g>
    </g>
   </g>
   <g id="matplotlib.axis_16">
    <g id="ytick_39">
     <g id="line2d_86">
      <g>
       <use style="stroke:#000000;stroke-width:0.8;" x="641.793103" xlink:href="#md96faa8dab" y="346.147938"/>
      </g>
     </g>
     <g id="text_79">
      <!-- −0.05 -->
      <g transform="translate(604.147791 349.947157)scale(0.1 -0.1)">
       <use xlink:href="#DejaVuSans-8722"/>
       <use x="83.789062" xlink:href="#DejaVuSans-48"/>
       <use x="147.412109" xlink:href="#DejaVuSans-46"/>
       <use x="179.199219" xlink:href="#DejaVuSans-48"/>
       <use x="242.822266" xlink:href="#DejaVuSans-53"/>
      </g>
     </g>
    </g>
    <g id="ytick_40">
     <g id="line2d_87">
      <g>
       <use style="stroke:#000000;stroke-width:0.8;" x="641.793103" xlink:href="#md96faa8dab" y="311.173002"/>
      </g>
     </g>
     <g id="text_80">
      <!-- 0.00 -->
      <g transform="translate(612.527478 314.972221)scale(0.1 -0.1)">
       <use xlink:href="#DejaVuSans-48"/>
       <use x="63.623047" xlink:href="#DejaVuSans-46"/>
       <use x="95.410156" xlink:href="#DejaVuSans-48"/>
       <use x="159.033203" xlink:href="#DejaVuSans-48"/>
      </g>
     </g>
    </g>
    <g id="ytick_41">
     <g id="line2d_88">
      <g>
       <use style="stroke:#000000;stroke-width:0.8;" x="641.793103" xlink:href="#md96faa8dab" y="276.198067"/>
      </g>
     </g>
     <g id="text_81">
      <!-- 0.05 -->
      <g transform="translate(612.527478 279.997285)scale(0.1 -0.1)">
       <use xlink:href="#DejaVuSans-48"/>
       <use x="63.623047" xlink:href="#DejaVuSans-46"/>
       <use x="95.410156" xlink:href="#DejaVuSans-48"/>
       <use x="159.033203" xlink:href="#DejaVuSans-53"/>
      </g>
     </g>
    </g>
    <g id="ytick_42">
     <g id="line2d_89">
      <g>
       <use style="stroke:#000000;stroke-width:0.8;" x="641.793103" xlink:href="#md96faa8dab" y="241.223131"/>
      </g>
     </g>
     <g id="text_82">
      <!-- 0.10 -->
      <g transform="translate(612.527478 245.02235)scale(0.1 -0.1)">
       <use xlink:href="#DejaVuSans-48"/>
       <use x="63.623047" xlink:href="#DejaVuSans-46"/>
       <use x="95.410156" xlink:href="#DejaVuSans-49"/>
       <use x="159.033203" xlink:href="#DejaVuSans-48"/>
      </g>
     </g>
    </g>
   </g>
   <g id="line2d_90">
    <path clip-path="url(#p721ce7486a)" d="M 650.539185 311.172968 
L 652.306071 311.17296 
L 654.072956 311.17295 
L 655.839842 311.172937 
L 657.606728 311.172921 
L 659.373613 311.172902 
L 661.140499 311.172878 
L 662.907378 311.172848 
L 664.674264 311.172811 
L 666.44115 311.172766 
L 668.208035 311.172709 
L 669.974921 311.17264 
L 671.741807 311.172553 
L 673.508686 311.172446 
L 675.275571 311.172314 
L 677.042457 311.17215 
L 678.809343 311.171947 
L 680.576228 311.171696 
L 682.343114 311.171386 
L 684.11 311.171003 
L 685.876882 311.170529 
L 687.643768 311.169943 
L 689.410653 311.169219 
L 691.177539 311.168324 
L 692.944428 311.167219 
L 694.711314 311.165853 
L 696.4782 311.164167 
L 698.245085 311.162085 
L 700.011968 311.159515 
L 701.778853 311.156343 
L 703.545739 311.152429 
L 705.312625 311.1476 
L 707.079507 311.141644 
L 708.846393 311.134301 
L 710.613277 311.125247 
L 712.380162 311.114089 
L 714.147046 311.100341 
L 715.913932 311.083407 
L 717.680818 311.062554 
L 719.447704 311.036883 
L 721.214588 311.005292 
L 722.981473 310.966428 
L 724.748357 310.918634 
L 726.515243 310.859882 
L 728.282128 310.787689 
L 730.049013 310.69902 
L 731.815898 310.590168 
L 733.582783 310.45661 
L 735.349668 310.292835 
L 737.116553 310.092136 
L 738.883438 309.846371 
L 740.650324 309.545668 
L 742.417208 309.178092 
L 744.184093 308.729262 
L 745.950979 308.18191 
L 747.717864 307.515393 
L 749.484757 306.705185 
L 751.251642 305.72236 
L 753.018527 304.533109 
L 754.785412 303.098396 
L 756.552296 301.373862 
L 758.319182 299.310156 
L 760.086068 296.853985 
L 761.852954 293.950264 
L 763.619838 290.545756 
L 765.386723 286.594931 
L 767.153607 282.068527 
L 768.920493 276.965378 
L 770.687379 271.327657 
L 772.454264 265.258697 
L 774.22115 258.941578 
L 775.988032 252.654311 
L 777.754918 246.775504 
L 779.521804 241.773279 
L 781.288689 238.170581 
L 783.055572 236.484298 
L 784.822457 237.144324 
L 786.589343 240.408363 
L 788.356229 246.296082 
L 790.123115 254.565056 
L 791.89 264.739896 
L 793.656886 276.188735 
L 795.423772 288.224506 
L 797.190657 300.203346 
L 798.957543 311.597394 
L 800.724429 322.031577 
L 802.491314 331.286641 
L 804.258193 339.27851 
L 806.025079 346.025991 
L 807.791965 351.61623 
L 809.55885 356.174984 
L 811.325736 359.843385 
L 813.092622 362.762328 
L 814.859501 365.062775 
L 816.626387 366.86088 
L 818.393272 368.256201 
L 820.160158 369.331973 
L 821.927044 370.15646 
L 823.693929 370.784847 
L 825.460815 371.261157 
" style="fill:none;stroke:#1f77b4;stroke-linecap:square;stroke-width:1.5;"/>
   </g>
   <g id="patch_38">
    <path d="M 641.793103 378 
L 641.793103 229.745455 
" style="fill:none;stroke:#000000;stroke-linecap:square;stroke-linejoin:miter;stroke-width:0.8;"/>
   </g>
   <g id="patch_39">
    <path d="M 834.206897 378 
L 834.206897 229.745455 
" style="fill:none;stroke:#000000;stroke-linecap:square;stroke-linejoin:miter;stroke-width:0.8;"/>
   </g>
   <g id="patch_40">
    <path d="M 641.793103 378 
L 834.206897 378 
" style="fill:none;stroke:#000000;stroke-linecap:square;stroke-linejoin:miter;stroke-width:0.8;"/>
   </g>
   <g id="patch_41">
    <path d="M 641.793103 229.745455 
L 834.206897 229.745455 
" style="fill:none;stroke:#000000;stroke-linecap:square;stroke-linejoin:miter;stroke-width:0.8;"/>
   </g>
  </g>
  <g id="axes_9">
   <g id="patch_42">
    <path d="M 872.689655 378 
L 1065.103448 378 
L 1065.103448 229.745455 
L 872.689655 229.745455 
z
" style="fill:#ffffff;"/>
   </g>
   <g id="matplotlib.axis_17">
    <g id="xtick_41">
     <g id="line2d_91">
      <g>
       <use style="stroke:#000000;stroke-width:0.8;" x="881.435737" xlink:href="#m3baf579d06" y="378"/>
      </g>
     </g>
     <g id="text_83">
      <!-- −100 -->
      <g transform="translate(867.702143 392.598437)scale(0.1 -0.1)">
       <use xlink:href="#DejaVuSans-8722"/>
       <use x="83.789062" xlink:href="#DejaVuSans-49"/>
       <use x="147.412109" xlink:href="#DejaVuSans-48"/>
       <use x="211.035156" xlink:href="#DejaVuSans-48"/>
      </g>
     </g>
    </g>
    <g id="xtick_42">
     <g id="line2d_92">
      <g>
       <use style="stroke:#000000;stroke-width:0.8;" x="925.166144" xlink:href="#m3baf579d06" y="378"/>
      </g>
     </g>
     <g id="text_84">
      <!-- −50 -->
      <g transform="translate(914.6138 392.598437)scale(0.1 -0.1)">
       <use xlink:href="#DejaVuSans-8722"/>
       <use x="83.789062" xlink:href="#DejaVuSans-53"/>
       <use x="147.412109" xlink:href="#DejaVuSans-48"/>
      </g>
     </g>
    </g>
    <g id="xtick_43">
     <g id="line2d_93">
      <g>
       <use style="stroke:#000000;stroke-width:0.8;" x="968.896552" xlink:href="#m3baf579d06" y="378"/>
      </g>
     </g>
     <g id="text_85">
      <!-- 0 -->
      <g transform="translate(965.715302 392.598437)scale(0.1 -0.1)">
       <use xlink:href="#DejaVuSans-48"/>
      </g>
     </g>
    </g>
    <g id="xtick_44">
     <g id="line2d_94">
      <g>
       <use style="stroke:#000000;stroke-width:0.8;" x="1012.626959" xlink:href="#m3baf579d06" y="378"/>
      </g>
     </g>
     <g id="text_86">
      <!-- 50 -->
      <g transform="translate(1006.264459 392.598437)scale(0.1 -0.1)">
       <use xlink:href="#DejaVuSans-53"/>
       <use x="63.623047" xlink:href="#DejaVuSans-48"/>
      </g>
     </g>
    </g>
    <g id="xtick_45">
     <g id="line2d_95">
      <g>
       <use style="stroke:#000000;stroke-width:0.8;" x="1056.357367" xlink:href="#m3baf579d06" y="378"/>
      </g>
     </g>
     <g id="text_87">
      <!-- 100 -->
      <g transform="translate(1046.813617 392.598437)scale(0.1 -0.1)">
       <use xlink:href="#DejaVuSans-49"/>
       <use x="63.623047" xlink:href="#DejaVuSans-48"/>
       <use x="127.246094" xlink:href="#DejaVuSans-48"/>
      </g>
     </g>
    </g>
   </g>
   <g id="matplotlib.axis_18">
    <g id="ytick_43">
     <g id="line2d_96">
      <g>
       <use style="stroke:#000000;stroke-width:0.8;" x="872.689655" xlink:href="#md96faa8dab" y="347.763169"/>
      </g>
     </g>
     <g id="text_88">
      <!-- 0.0 -->
      <g transform="translate(849.78653 351.562388)scale(0.1 -0.1)">
       <use xlink:href="#DejaVuSans-48"/>
       <use x="63.623047" xlink:href="#DejaVuSans-46"/>
       <use x="95.410156" xlink:href="#DejaVuSans-48"/>
      </g>
     </g>
    </g>
    <g id="ytick_44">
     <g id="line2d_97">
      <g>
       <use style="stroke:#000000;stroke-width:0.8;" x="872.689655" xlink:href="#md96faa8dab" y="311.332178"/>
      </g>
     </g>
     <g id="text_89">
      <!-- 0.2 -->
      <g transform="translate(849.78653 315.131397)scale(0.1 -0.1)">
       <use xlink:href="#DejaVuSans-48"/>
       <use x="63.623047" xlink:href="#DejaVuSans-46"/>
       <use x="95.410156" xlink:href="#DejaVuSans-50"/>
      </g>
     </g>
    </g>
    <g id="ytick_45">
     <g id="line2d_98">
      <g>
       <use style="stroke:#000000;stroke-width:0.8;" x="872.689655" xlink:href="#md96faa8dab" y="274.901187"/>
      </g>
     </g>
     <g id="text_90">
      <!-- 0.4 -->
      <g transform="translate(849.78653 278.700406)scale(0.1 -0.1)">
       <use xlink:href="#DejaVuSans-48"/>
       <use x="63.623047" xlink:href="#DejaVuSans-46"/>
       <use x="95.410156" xlink:href="#DejaVuSans-52"/>
      </g>
     </g>
    </g>
    <g id="ytick_46">
     <g id="line2d_99">
      <g>
       <use style="stroke:#000000;stroke-width:0.8;" x="872.689655" xlink:href="#md96faa8dab" y="238.470196"/>
      </g>
     </g>
     <g id="text_91">
      <!-- 0.6 -->
      <g transform="translate(849.78653 242.269415)scale(0.1 -0.1)">
       <use xlink:href="#DejaVuSans-48"/>
       <use x="63.623047" xlink:href="#DejaVuSans-46"/>
       <use x="95.410156" xlink:href="#DejaVuSans-54"/>
      </g>
     </g>
    </g>
   </g>
   <g id="line2d_100">
    <path clip-path="url(#pe83102324f)" d="M 881.435737 347.763165 
L 883.202622 347.763162 
L 884.969508 347.763158 
L 886.736394 347.763151 
L 888.503279 347.76314 
L 890.270165 347.763124 
L 892.037051 347.763097 
L 893.80393 347.763054 
L 895.570816 347.762987 
L 897.337701 347.76288 
L 899.104587 347.762711 
L 900.871473 347.762442 
L 902.638358 347.762016 
L 904.405237 347.761341 
L 906.172123 347.760272 
L 907.939009 347.758578 
L 909.705894 347.755894 
L 911.47278 347.751644 
L 913.239666 347.744917 
L 915.006551 347.73427 
L 916.773434 347.717424 
L 918.54032 347.690781 
L 920.307205 347.648657 
L 922.074091 347.582085 
L 923.84098 347.47693 
L 925.607866 347.310941 
L 927.374751 347.049157 
L 929.141637 346.636799 
L 930.908519 345.988421 
L 932.675405 344.971651 
L 934.442291 343.383685 
L 936.209176 340.919344 
L 937.976059 337.132912 
L 939.742944 331.405911 
L 941.509829 322.95683 
L 943.276714 310.973559 
L 945.043598 295.005744 
L 946.810484 275.739395 
L 948.57737 255.98049 
L 950.344255 240.944284 
L 952.111139 236.484298 
L 953.878025 245.431718 
L 955.644909 265.23965 
L 957.411795 289.720675 
L 959.17868 312.990636 
L 960.945564 331.836269 
L 962.71245 345.593928 
L 964.479335 354.98079 
L 966.24622 361.111651 
L 968.013105 365.005183 
L 969.77999 367.433849 
L 971.546875 368.931396 
L 973.31376 369.847905 
L 975.080645 370.406031 
L 976.847531 370.744747 
L 978.614416 370.949803 
L 980.381309 371.073703 
L 982.148194 371.148453 
L 983.915078 371.193486 
L 985.681964 371.220581 
L 987.448848 371.236861 
L 989.215734 371.246633 
L 990.98262 371.252485 
L 992.749505 371.255992 
L 994.516389 371.258084 
L 996.283275 371.259333 
L 998.050159 371.260079 
L 999.817045 371.260519 
L 1001.58393 371.26078 
L 1003.350816 371.260937 
L 1005.117702 371.261029 
L 1006.884584 371.261081 
L 1008.65147 371.261114 
L 1010.418355 371.261133 
L 1012.185241 371.261143 
L 1013.952124 371.261149 
L 1015.719009 371.261154 
L 1017.485895 371.261154 
L 1019.252781 371.261157 
L 1021.019666 371.261157 
L 1022.786552 371.261157 
L 1024.553438 371.261157 
L 1026.320323 371.261157 
L 1028.087209 371.261157 
L 1029.854095 371.261157 
L 1031.62098 371.261157 
L 1033.387866 371.261157 
L 1035.154745 371.261157 
L 1036.921631 371.261157 
L 1038.688517 371.261157 
L 1040.455402 371.261157 
L 1042.222288 371.261157 
L 1043.989174 371.261157 
L 1045.756053 371.261157 
L 1047.522938 371.261157 
L 1049.289824 371.261157 
L 1051.05671 371.261157 
L 1052.823595 371.261157 
L 1054.590481 371.261157 
L 1056.357367 371.261157 
" style="fill:none;stroke:#1f77b4;stroke-linecap:square;stroke-width:1.5;"/>
   </g>
   <g id="patch_43">
    <path d="M 872.689655 378 
L 872.689655 229.745455 
" style="fill:none;stroke:#000000;stroke-linecap:square;stroke-linejoin:miter;stroke-width:0.8;"/>
   </g>
   <g id="patch_44">
    <path d="M 1065.103448 378 
L 1065.103448 229.745455 
" style="fill:none;stroke:#000000;stroke-linecap:square;stroke-linejoin:miter;stroke-width:0.8;"/>
   </g>
   <g id="patch_45">
    <path d="M 872.689655 378 
L 1065.103448 378 
" style="fill:none;stroke:#000000;stroke-linecap:square;stroke-linejoin:miter;stroke-width:0.8;"/>
   </g>
   <g id="patch_46">
    <path d="M 872.689655 229.745455 
L 1065.103448 229.745455 
" style="fill:none;stroke:#000000;stroke-linecap:square;stroke-linejoin:miter;stroke-width:0.8;"/>
   </g>
  </g>
  <g id="axes_10">
   <g id="patch_47">
    <path d="M 1103.586207 378 
L 1296 378 
L 1296 229.745455 
L 1103.586207 229.745455 
z
" style="fill:#ffffff;"/>
   </g>
   <g id="matplotlib.axis_19">
    <g id="xtick_46">
     <g id="line2d_101">
      <g>
       <use style="stroke:#000000;stroke-width:0.8;" x="1112.332288" xlink:href="#m3baf579d06" y="378"/>
      </g>
     </g>
     <g id="text_92">
      <!-- −100 -->
      <g transform="translate(1098.598695 392.598437)scale(0.1 -0.1)">
       <use xlink:href="#DejaVuSans-8722"/>
       <use x="83.789062" xlink:href="#DejaVuSans-49"/>
       <use x="147.412109" xlink:href="#DejaVuSans-48"/>
       <use x="211.035156" xlink:href="#DejaVuSans-48"/>
      </g>
     </g>
    </g>
    <g id="xtick_47">
     <g id="line2d_102">
      <g>
       <use style="stroke:#000000;stroke-width:0.8;" x="1156.062696" xlink:href="#m3baf579d06" y="378"/>
      </g>
     </g>
     <g id="text_93">
      <!-- −50 -->
      <g transform="translate(1145.510352 392.598437)scale(0.1 -0.1)">
       <use xlink:href="#DejaVuSans-8722"/>
       <use x="83.789062" xlink:href="#DejaVuSans-53"/>
       <use x="147.412109" xlink:href="#DejaVuSans-48"/>
      </g>
     </g>
    </g>
    <g id="xtick_48">
     <g id="line2d_103">
      <g>
       <use style="stroke:#000000;stroke-width:0.8;" x="1199.793103" xlink:href="#m3baf579d06" y="378"/>
      </g>
     </g>
     <g id="text_94">
      <!-- 0 -->
      <g transform="translate(1196.611853 392.598437)scale(0.1 -0.1)">
       <use xlink:href="#DejaVuSans-48"/>
      </g>
     </g>
    </g>
    <g id="xtick_49">
     <g id="line2d_104">
      <g>
       <use style="stroke:#000000;stroke-width:0.8;" x="1243.523511" xlink:href="#m3baf579d06" y="378"/>
      </g>
     </g>
     <g id="text_95">
      <!-- 50 -->
      <g transform="translate(1237.161011 392.598437)scale(0.1 -0.1)">
       <use xlink:href="#DejaVuSans-53"/>
       <use x="63.623047" xlink:href="#DejaVuSans-48"/>
      </g>
     </g>
    </g>
    <g id="xtick_50">
     <g id="line2d_105">
      <g>
       <use style="stroke:#000000;stroke-width:0.8;" x="1287.253918" xlink:href="#m3baf579d06" y="378"/>
      </g>
     </g>
     <g id="text_96">
      <!-- 100 -->
      <g transform="translate(1277.710168 392.598437)scale(0.1 -0.1)">
       <use xlink:href="#DejaVuSans-49"/>
       <use x="63.623047" xlink:href="#DejaVuSans-48"/>
       <use x="127.246094" xlink:href="#DejaVuSans-48"/>
      </g>
     </g>
    </g>
   </g>
   <g id="matplotlib.axis_20">
    <g id="ytick_47">
     <g id="line2d_106">
      <g>
       <use style="stroke:#000000;stroke-width:0.8;" x="1103.586207" xlink:href="#md96faa8dab" y="356.283161"/>
      </g>
     </g>
     <g id="text_97">
      <!-- −0.15 -->
      <g transform="translate(1065.940894 360.08238)scale(0.1 -0.1)">
       <use xlink:href="#DejaVuSans-8722"/>
       <use x="83.789062" xlink:href="#DejaVuSans-48"/>
       <use x="147.412109" xlink:href="#DejaVuSans-46"/>
       <use x="179.199219" xlink:href="#DejaVuSans-49"/>
       <use x="242.822266" xlink:href="#DejaVuSans-53"/>
      </g>
     </g>
    </g>
    <g id="ytick_48">
     <g id="line2d_107">
      <g>
       <use style="stroke:#000000;stroke-width:0.8;" x="1103.586207" xlink:href="#md96faa8dab" y="316.35019"/>
      </g>
     </g>
     <g id="text_98">
      <!-- −0.10 -->
      <g transform="translate(1065.940894 320.149409)scale(0.1 -0.1)">
       <use xlink:href="#DejaVuSans-8722"/>
       <use x="83.789062" xlink:href="#DejaVuSans-48"/>
       <use x="147.412109" xlink:href="#DejaVuSans-46"/>
       <use x="179.199219" xlink:href="#DejaVuSans-49"/>
       <use x="242.822266" xlink:href="#DejaVuSans-48"/>
      </g>
     </g>
    </g>
    <g id="ytick_49">
     <g id="line2d_108">
      <g>
       <use style="stroke:#000000;stroke-width:0.8;" x="1103.586207" xlink:href="#md96faa8dab" y="276.41722"/>
      </g>
     </g>
     <g id="text_99">
      <!-- −0.05 -->
      <g transform="translate(1065.940894 280.216439)scale(0.1 -0.1)">
       <use xlink:href="#DejaVuSans-8722"/>
       <use x="83.789062" xlink:href="#DejaVuSans-48"/>
       <use x="147.412109" xlink:href="#DejaVuSans-46"/>
       <use x="179.199219" xlink:href="#DejaVuSans-48"/>
       <use x="242.822266" xlink:href="#DejaVuSans-53"/>
      </g>
     </g>
    </g>
    <g id="ytick_50">
     <g id="line2d_109">
      <g>
       <use style="stroke:#000000;stroke-width:0.8;" x="1103.586207" xlink:href="#md96faa8dab" y="236.48425"/>
      </g>
     </g>
     <g id="text_100">
      <!-- 0.00 -->
      <g transform="translate(1074.320582 240.283469)scale(0.1 -0.1)">
       <use xlink:href="#DejaVuSans-48"/>
       <use x="63.623047" xlink:href="#DejaVuSans-46"/>
       <use x="95.410156" xlink:href="#DejaVuSans-48"/>
       <use x="159.033203" xlink:href="#DejaVuSans-48"/>
      </g>
     </g>
    </g>
   </g>
   <g id="line2d_110">
    <path clip-path="url(#p961357d741)" d="M 1112.332288 236.484298 
L 1114.099174 236.484312 
L 1115.86606 236.484331 
L 1117.632945 236.484356 
L 1119.399831 236.484389 
L 1121.166717 236.484431 
L 1122.933603 236.484486 
L 1124.700482 236.484559 
L 1126.467367 236.484653 
L 1128.234253 236.484776 
L 1130.001139 236.484937 
L 1131.768024 236.485147 
L 1133.53491 236.485421 
L 1135.301789 236.485779 
L 1137.068675 236.486246 
L 1138.83556 236.486856 
L 1140.602446 236.487653 
L 1142.369332 236.488693 
L 1144.136218 236.490051 
L 1145.903103 236.491824 
L 1147.669986 236.494138 
L 1149.436871 236.49716 
L 1151.203757 236.501105 
L 1152.970643 236.506256 
L 1154.737532 236.51298 
L 1156.504417 236.521759 
L 1158.271303 236.53322 
L 1160.038189 236.548182 
L 1161.805071 236.567714 
L 1163.571957 236.59321 
L 1165.338842 236.626492 
L 1167.105728 236.669932 
L 1168.872611 236.726626 
L 1170.639496 236.800611 
L 1172.40638 236.897144 
L 1174.173266 237.023074 
L 1175.94015 237.187311 
L 1177.707036 237.401439 
L 1179.473921 237.68049 
L 1181.240807 238.043947 
L 1183.007691 238.516993 
L 1184.774577 239.132083 
L 1186.541461 239.930869 
L 1188.308346 240.966531 
L 1190.075231 242.306469 
L 1191.842116 244.035301 
L 1193.609002 246.257896 
L 1195.375887 249.101952 
L 1197.142772 252.719206 
L 1198.909657 257.283772 
L 1200.676542 262.985228 
L 1202.443427 270.013381 
L 1204.210312 278.530526 
L 1205.977197 288.627881 
L 1207.744082 300.264632 
L 1209.510967 313.19466 
L 1211.27786 326.896465 
L 1213.044745 340.53454 
L 1214.81163 352.991136 
L 1216.578516 362.997897 
L 1218.3454 369.366145 
L 1220.112286 371.261157 
L 1221.879171 368.422851 
L 1223.646057 361.238829 
L 1225.412941 350.636152 
L 1227.179827 337.84139 
L 1228.946711 324.108458 
L 1230.713596 310.505229 
L 1232.480482 297.803646 
L 1234.247368 286.465067 
L 1236.014253 276.688194 
L 1237.781136 268.481576 
L 1239.548022 261.735283 
L 1241.314907 256.278531 
L 1243.081793 251.919819 
L 1244.848675 248.471752 
L 1246.615561 245.764384 
L 1248.382447 243.650817 
L 1250.149332 242.008111 
L 1251.916218 240.73571 
L 1253.683104 239.752713 
L 1255.449989 238.994821 
L 1257.216875 238.411386 
L 1258.983761 237.962779 
L 1260.750646 237.618156 
L 1262.517532 237.353598 
L 1264.284418 237.150612 
L 1266.051297 236.994932 
L 1267.818183 236.875569 
L 1269.585068 236.784074 
L 1271.351954 236.713954 
L 1273.11884 236.660222 
L 1274.885725 236.619052 
L 1276.652604 236.587511 
L 1278.41949 236.563348 
L 1280.186376 236.544837 
L 1281.953261 236.530658 
L 1283.720147 236.519796 
L 1285.487033 236.511477 
L 1287.253918 236.505104 
" style="fill:none;stroke:#1f77b4;stroke-linecap:square;stroke-width:1.5;"/>
   </g>
   <g id="patch_48">
    <path d="M 1103.586207 378 
L 1103.586207 229.745455 
" style="fill:none;stroke:#000000;stroke-linecap:square;stroke-linejoin:miter;stroke-width:0.8;"/>
   </g>
   <g id="patch_49">
    <path d="M 1296 378 
L 1296 229.745455 
" style="fill:none;stroke:#000000;stroke-linecap:square;stroke-linejoin:miter;stroke-width:0.8;"/>
   </g>
   <g id="patch_50">
    <path d="M 1103.586207 378 
L 1296 378 
" style="fill:none;stroke:#000000;stroke-linecap:square;stroke-linejoin:miter;stroke-width:0.8;"/>
   </g>
   <g id="patch_51">
    <path d="M 1103.586207 229.745455 
L 1296 229.745455 
" style="fill:none;stroke:#000000;stroke-linecap:square;stroke-linejoin:miter;stroke-width:0.8;"/>
   </g>
  </g>
 </g>
 <defs>
  <clipPath id="p71743c928c">
   <rect height="148.254545" width="192.413793" x="180" y="51.84"/>
  </clipPath>
  <clipPath id="p4b5f72007e">
   <rect height="148.254545" width="192.413793" x="410.896552" y="51.84"/>
  </clipPath>
  <clipPath id="p1c872023ca">
   <rect height="148.254545" width="192.413793" x="641.793103" y="51.84"/>
  </clipPath>
  <clipPath id="pb54d1ae3ec">
   <rect height="148.254545" width="192.413793" x="872.689655" y="51.84"/>
  </clipPath>
  <clipPath id="pbb51d1e5bc">
   <rect height="148.254545" width="192.413793" x="1103.586207" y="51.84"/>
  </clipPath>
  <clipPath id="p0daf55476a">
   <rect height="148.254545" width="192.413793" x="180" y="229.745455"/>
  </clipPath>
  <clipPath id="pdea59cd798">
   <rect height="148.254545" width="192.413793" x="410.896552" y="229.745455"/>
  </clipPath>
  <clipPath id="p721ce7486a">
   <rect height="148.254545" width="192.413793" x="641.793103" y="229.745455"/>
  </clipPath>
  <clipPath id="pe83102324f">
   <rect height="148.254545" width="192.413793" x="872.689655" y="229.745455"/>
  </clipPath>
  <clipPath id="p961357d741">
   <rect height="148.254545" width="192.413793" x="1103.586207" y="229.745455"/>
  </clipPath>
 </defs>
</svg>
